<svg width="47" height="42" viewBox="0 0 47 42" fill="none" xmlns="http://www.w3.org/2000/svg">
<path d="M3.80273 27.8726L1.21387 35H0.155762L3.13672 27.1797H3.81885L3.80273 27.8726ZM5.97266 35L3.37842 27.8726L3.3623 27.1797H4.04443L7.03613 35H5.97266ZM5.83838 32.105V32.9536H1.44482V32.105H5.83838ZM8.92676 30.3057V37.2344H7.92773V29.1885H8.84082L8.92676 30.3057ZM12.8423 32.0459V32.1587C12.8423 32.5812 12.7922 32.9733 12.6919 33.335C12.5916 33.693 12.4448 34.0046 12.2515 34.2695C12.0617 34.5345 11.8271 34.7404 11.5479 34.8872C11.2686 35.034 10.9481 35.1074 10.5864 35.1074C10.2176 35.1074 9.89176 35.0465 9.60889 34.9248C9.32601 34.8031 9.0861 34.6258 8.88916 34.3931C8.69222 34.1603 8.53467 33.881 8.4165 33.5552C8.30192 33.2293 8.22314 32.8623 8.18018 32.4541V31.8525C8.22314 31.4229 8.30371 31.0379 8.42188 30.6978C8.54004 30.3576 8.6958 30.0675 8.88916 29.8276C9.0861 29.5841 9.32422 29.3997 9.60352 29.2744C9.88281 29.1455 10.2051 29.0811 10.5703 29.0811C10.9355 29.0811 11.2596 29.1527 11.5425 29.2959C11.8254 29.4355 12.0635 29.6361 12.2568 29.8975C12.4502 30.1589 12.5952 30.4722 12.6919 30.8374C12.7922 31.1991 12.8423 31.6019 12.8423 32.0459ZM11.8433 32.1587V32.0459C11.8433 31.7559 11.8128 31.4837 11.752 31.2295C11.6911 30.9717 11.5962 30.7461 11.4673 30.5527C11.342 30.3558 11.1808 30.2018 10.9839 30.0908C10.7869 29.9762 10.5524 29.9189 10.2803 29.9189C10.0296 29.9189 9.8112 29.9619 9.625 30.0479C9.44238 30.1338 9.28662 30.2502 9.15771 30.397C9.02881 30.5402 8.92318 30.7049 8.84082 30.8911C8.76204 31.0737 8.70296 31.2635 8.66357 31.4604V32.8516C8.73519 33.1022 8.83545 33.3385 8.96436 33.5605C9.09326 33.779 9.26514 33.9562 9.47998 34.0923C9.69482 34.2248 9.96517 34.291 10.291 34.291C10.5596 34.291 10.7905 34.2355 10.9839 34.1245C11.1808 34.0099 11.342 33.8542 11.4673 33.6572C11.5962 33.4603 11.6911 33.2347 11.752 32.9805C11.8128 32.7227 11.8433 32.4487 11.8433 32.1587ZM15.1035 30.3057V37.2344H14.1045V29.1885H15.0176L15.1035 30.3057ZM19.019 32.0459V32.1587C19.019 32.5812 18.9689 32.9733 18.8687 33.335C18.7684 33.693 18.6216 34.0046 18.4282 34.2695C18.2384 34.5345 18.0039 34.7404 17.7246 34.8872C17.4453 35.034 17.1248 35.1074 16.7632 35.1074C16.3944 35.1074 16.0685 35.0465 15.7856 34.9248C15.5028 34.8031 15.2629 34.6258 15.0659 34.3931C14.869 34.1603 14.7114 33.881 14.5933 33.5552C14.4787 33.2293 14.3999 32.8623 14.3569 32.4541V31.8525C14.3999 31.4229 14.4805 31.0379 14.5986 30.6978C14.7168 30.3576 14.8726 30.0675 15.0659 29.8276C15.2629 29.5841 15.501 29.3997 15.7803 29.2744C16.0596 29.1455 16.3818 29.0811 16.7471 29.0811C17.1123 29.0811 17.4364 29.1527 17.7192 29.2959C18.0021 29.4355 18.2402 29.6361 18.4336 29.8975C18.627 30.1589 18.772 30.4722 18.8687 30.8374C18.9689 31.1991 19.019 31.6019 19.019 32.0459ZM18.02 32.1587V32.0459C18.02 31.7559 17.9896 31.4837 17.9287 31.2295C17.8678 30.9717 17.7729 30.7461 17.644 30.5527C17.5187 30.3558 17.3576 30.2018 17.1606 30.0908C16.9637 29.9762 16.7292 29.9189 16.457 29.9189C16.2064 29.9189 15.988 29.9619 15.8018 30.0479C15.6191 30.1338 15.4634 30.2502 15.3345 30.397C15.2056 30.5402 15.0999 30.7049 15.0176 30.8911C14.9388 31.0737 14.8797 31.2635 14.8403 31.4604V32.8516C14.9119 33.1022 15.0122 33.3385 15.1411 33.5605C15.27 33.779 15.4419 33.9562 15.6567 34.0923C15.8716 34.2248 16.1419 34.291 16.4678 34.291C16.7363 34.291 16.9673 34.2355 17.1606 34.1245C17.3576 34.0099 17.5187 33.8542 17.644 33.6572C17.7729 33.4603 17.8678 33.2347 17.9287 32.9805C17.9896 32.7227 18.02 32.4487 18.02 32.1587ZM21.2803 30.1016V35H20.2866V29.1885H21.2534L21.2803 30.1016ZM23.0957 29.1562L23.0903 30.0801C23.008 30.0622 22.9292 30.0514 22.854 30.0479C22.7824 30.0407 22.7 30.0371 22.6069 30.0371C22.3778 30.0371 22.1755 30.0729 22 30.1445C21.8245 30.2161 21.6759 30.3164 21.5542 30.4453C21.4325 30.5742 21.3358 30.7282 21.2642 30.9072C21.1961 31.0827 21.1514 31.276 21.1299 31.4873L20.8506 31.6484C20.8506 31.2975 20.8846 30.9681 20.9526 30.6602C21.0243 30.3522 21.1335 30.0801 21.2803 29.8438C21.4271 29.6038 21.6133 29.4176 21.8389 29.2852C22.068 29.1491 22.3402 29.0811 22.6553 29.0811C22.7269 29.0811 22.8092 29.09 22.9023 29.1079C22.9954 29.1222 23.0599 29.1383 23.0957 29.1562ZM23.6436 32.1587V32.0352C23.6436 31.6162 23.7044 31.2277 23.8262 30.8696C23.9479 30.508 24.1234 30.1947 24.3525 29.9297C24.5817 29.6611 24.8592 29.4535 25.1851 29.3066C25.5109 29.1562 25.8761 29.0811 26.2808 29.0811C26.689 29.0811 27.056 29.1562 27.3818 29.3066C27.7113 29.4535 27.9906 29.6611 28.2197 29.9297C28.4525 30.1947 28.6297 30.508 28.7515 30.8696C28.8732 31.2277 28.9341 31.6162 28.9341 32.0352V32.1587C28.9341 32.5776 28.8732 32.9661 28.7515 33.3242C28.6297 33.6823 28.4525 33.9956 28.2197 34.2642C27.9906 34.5291 27.7131 34.7368 27.3872 34.8872C27.0649 35.034 26.6997 35.1074 26.2915 35.1074C25.8833 35.1074 25.5163 35.034 25.1904 34.8872C24.8646 34.7368 24.5853 34.5291 24.3525 34.2642C24.1234 33.9956 23.9479 33.6823 23.8262 33.3242C23.7044 32.9661 23.6436 32.5776 23.6436 32.1587ZM24.6372 32.0352V32.1587C24.6372 32.4487 24.6712 32.7227 24.7393 32.9805C24.8073 33.2347 24.9093 33.4603 25.0454 33.6572C25.1851 33.8542 25.3587 34.0099 25.5664 34.1245C25.7741 34.2355 26.0158 34.291 26.2915 34.291C26.5636 34.291 26.8018 34.2355 27.0059 34.1245C27.2135 34.0099 27.3854 33.8542 27.5215 33.6572C27.6576 33.4603 27.7596 33.2347 27.8276 32.9805C27.8993 32.7227 27.9351 32.4487 27.9351 32.1587V32.0352C27.9351 31.7487 27.8993 31.4784 27.8276 31.2241C27.7596 30.9663 27.6558 30.7389 27.5161 30.542C27.38 30.3415 27.2082 30.1839 27.0005 30.0693C26.7964 29.9548 26.5565 29.8975 26.2808 29.8975C26.0086 29.8975 25.7687 29.9548 25.561 30.0693C25.3569 30.1839 25.1851 30.3415 25.0454 30.542C24.9093 30.7389 24.8073 30.9663 24.7393 31.2241C24.6712 31.4784 24.6372 31.7487 24.6372 32.0352ZM31.8613 34.103L33.4512 29.1885H34.4663L32.377 35H31.7109L31.8613 34.103ZM30.5347 29.1885L32.1729 34.1299L32.2856 35H31.6196L29.5142 29.1885H30.5347ZM37.7588 35.1074C37.3542 35.1074 36.9871 35.0394 36.6577 34.9033C36.3319 34.7637 36.0508 34.5685 35.8145 34.3179C35.5817 34.0672 35.4027 33.77 35.2773 33.4263C35.152 33.0825 35.0894 32.7065 35.0894 32.2983V32.0728C35.0894 31.6001 35.1592 31.1794 35.2988 30.8105C35.4385 30.4382 35.6283 30.123 35.8682 29.8652C36.1081 29.6074 36.3802 29.4123 36.6846 29.2798C36.9889 29.1473 37.304 29.0811 37.6299 29.0811C38.0452 29.0811 38.4033 29.1527 38.7041 29.2959C39.0085 29.4391 39.2573 29.6396 39.4507 29.8975C39.644 30.1517 39.7873 30.4525 39.8804 30.7998C39.9735 31.1436 40.02 31.5195 40.02 31.9277V32.3735H35.6802V31.5625H39.0264V31.4873C39.012 31.2295 38.9583 30.9788 38.8652 30.7354C38.7757 30.4919 38.6325 30.2913 38.4355 30.1338C38.2386 29.9762 37.9701 29.8975 37.6299 29.8975C37.4043 29.8975 37.1966 29.9458 37.0068 30.0425C36.8171 30.1356 36.6541 30.2752 36.5181 30.4614C36.382 30.6476 36.2764 30.875 36.2012 31.1436C36.126 31.4121 36.0884 31.7218 36.0884 32.0728V32.2983C36.0884 32.5741 36.126 32.8337 36.2012 33.0771C36.2799 33.3171 36.3927 33.5283 36.5396 33.7109C36.6899 33.8936 36.8708 34.0368 37.082 34.1406C37.2969 34.2445 37.5404 34.2964 37.8125 34.2964C38.1634 34.2964 38.4606 34.2248 38.7041 34.0815C38.9476 33.9383 39.1606 33.7467 39.3433 33.5068L39.9448 33.9849C39.8195 34.1746 39.6602 34.3555 39.4668 34.5273C39.2734 34.6992 39.0353 34.8389 38.7524 34.9463C38.4731 35.0537 38.1419 35.1074 37.7588 35.1074ZM44.8433 33.8721V26.75H45.8423V35H44.9292L44.8433 33.8721ZM40.9331 32.1587V32.0459C40.9331 31.6019 40.9868 31.1991 41.0942 30.8374C41.2052 30.4722 41.361 30.1589 41.5615 29.8975C41.7656 29.6361 42.0073 29.4355 42.2866 29.2959C42.5695 29.1527 42.8846 29.0811 43.2319 29.0811C43.5972 29.0811 43.9159 29.1455 44.188 29.2744C44.4637 29.3997 44.6965 29.5841 44.8862 29.8276C45.0796 30.0675 45.2318 30.3576 45.3428 30.6978C45.4538 31.0379 45.5308 31.4229 45.5737 31.8525V32.3467C45.5343 32.7728 45.4574 33.1559 45.3428 33.4961C45.2318 33.8363 45.0796 34.1263 44.8862 34.3662C44.6965 34.6061 44.4637 34.7905 44.188 34.9194C43.9123 35.0448 43.59 35.1074 43.2212 35.1074C42.881 35.1074 42.5695 35.034 42.2866 34.8872C42.0073 34.7404 41.7656 34.5345 41.5615 34.2695C41.361 34.0046 41.2052 33.693 41.0942 33.335C40.9868 32.9733 40.9331 32.5812 40.9331 32.1587ZM41.9321 32.0459V32.1587C41.9321 32.4487 41.9608 32.7209 42.0181 32.9751C42.0789 33.2293 42.172 33.4531 42.2974 33.6465C42.4227 33.8398 42.582 33.992 42.7754 34.103C42.9688 34.2104 43.1997 34.2642 43.4683 34.2642C43.7977 34.2642 44.068 34.1943 44.2793 34.0547C44.4941 33.915 44.666 33.7306 44.7949 33.5015C44.9238 33.2723 45.0241 33.0234 45.0957 32.7549V31.4604C45.0527 31.2635 44.9901 31.0737 44.9077 30.8911C44.8289 30.7049 44.7251 30.5402 44.5962 30.397C44.4709 30.2502 44.3151 30.1338 44.1289 30.0479C43.9463 29.9619 43.7297 29.9189 43.479 29.9189C43.2069 29.9189 42.9723 29.9762 42.7754 30.0908C42.582 30.2018 42.4227 30.3558 42.2974 30.5527C42.172 30.7461 42.0789 30.9717 42.0181 31.2295C41.9608 31.4837 41.9321 31.7559 41.9321 32.0459Z" fill="#262626" fill-opacity="0.6"/>
<path d="M27.125 9.75L21.6219 15L18.875 12.375" stroke="#262626" stroke-opacity="0.6" stroke-width="1.2" stroke-linecap="round" stroke-linejoin="round"/>
<path d="M23 21C27.9706 21 32 16.9706 32 12C32 7.02944 27.9706 3 23 3C18.0294 3 14 7.02944 14 12C14 16.9706 18.0294 21 23 21Z" stroke="#262626" stroke-opacity="0.6" stroke-width="1.2" stroke-linecap="round" stroke-linejoin="round"/>
</svg>
