<svg width="19" height="19" viewBox="0 0 19 19" fill="none" xmlns="http://www.w3.org/2000/svg">
<path d="M15.4375 2.52344H13.5078V1.78125C13.5078 1.66315 13.4609 1.54988 13.3774 1.46637C13.2939 1.38285 13.1806 1.33594 13.0625 1.33594C12.9444 1.33594 12.8311 1.38285 12.7476 1.46637C12.6641 1.54988 12.6172 1.66315 12.6172 1.78125V2.52344H6.38281V1.78125C6.38281 1.66315 6.3359 1.54988 6.25238 1.46637C6.16887 1.38285 6.0556 1.33594 5.9375 1.33594C5.8194 1.33594 5.70613 1.38285 5.62262 1.46637C5.5391 1.54988 5.49219 1.66315 5.49219 1.78125V2.52344H3.5625C3.28692 2.52344 3.02263 2.63291 2.82777 2.82777C2.63291 3.02263 2.52344 3.28692 2.52344 3.5625V15.4375C2.52344 15.7131 2.63291 15.9774 2.82777 16.1722C3.02263 16.3671 3.28692 16.4766 3.5625 16.4766H15.4375C15.7131 16.4766 15.9774 16.3671 16.1722 16.1722C16.3671 15.9774 16.4766 15.7131 16.4766 15.4375V3.5625C16.4766 3.28692 16.3671 3.02263 16.1722 2.82777C15.9774 2.63291 15.7131 2.52344 15.4375 2.52344ZM3.5625 3.41406H5.49219V4.15625C5.49219 4.27435 5.5391 4.38762 5.62262 4.47113C5.70613 4.55465 5.8194 4.60156 5.9375 4.60156C6.0556 4.60156 6.16887 4.55465 6.25238 4.47113C6.3359 4.38762 6.38281 4.27435 6.38281 4.15625V3.41406H12.6172V4.15625C12.6172 4.27435 12.6641 4.38762 12.7476 4.47113C12.8311 4.55465 12.9444 4.60156 13.0625 4.60156C13.1806 4.60156 13.2939 4.55465 13.3774 4.47113C13.4609 4.38762 13.5078 4.27435 13.5078 4.15625V3.41406H15.4375C15.4769 3.41406 15.5146 3.4297 15.5425 3.45754C15.5703 3.48538 15.5859 3.52313 15.5859 3.5625V6.08594H3.41406V3.5625C3.41406 3.52313 3.4297 3.48538 3.45754 3.45754C3.48538 3.4297 3.52313 3.41406 3.5625 3.41406ZM15.4375 15.5859H3.5625C3.52313 15.5859 3.48538 15.5703 3.45754 15.5425C3.4297 15.5146 3.41406 15.4769 3.41406 15.4375V6.97656H15.5859V15.4375C15.5859 15.4769 15.5703 15.5146 15.5425 15.5425C15.5146 15.5703 15.4769 15.5859 15.4375 15.5859Z" fill="#A9AAAE"/>
</svg>
