<svg width="15" height="16" viewBox="0 0 15 16" fill="none" xmlns="http://www.w3.org/2000/svg">
<path d="M13.4375 1.52344H11.5078V0.78125C11.5078 0.663146 11.4609 0.549879 11.3774 0.466366C11.2939 0.382854 11.1806 0.335938 11.0625 0.335938C10.9444 0.335938 10.8311 0.382854 10.7476 0.466366C10.6641 0.549879 10.6172 0.663146 10.6172 0.78125V1.52344H4.38281V0.78125C4.38281 0.663146 4.3359 0.549879 4.25238 0.466366C4.16887 0.382854 4.0556 0.335938 3.9375 0.335938C3.8194 0.335938 3.70613 0.382854 3.62262 0.466366C3.5391 0.549879 3.49219 0.663146 3.49219 0.78125V1.52344H1.5625C1.28692 1.52344 1.02263 1.63291 0.827772 1.82777C0.63291 2.02263 0.523438 2.28692 0.523438 2.5625V14.4375C0.523438 14.7131 0.63291 14.9774 0.827772 15.1722C1.02263 15.3671 1.28692 15.4766 1.5625 15.4766H13.4375C13.7131 15.4766 13.9774 15.3671 14.1722 15.1722C14.3671 14.9774 14.4766 14.7131 14.4766 14.4375V2.5625C14.4766 2.28692 14.3671 2.02263 14.1722 1.82777C13.9774 1.63291 13.7131 1.52344 13.4375 1.52344ZM1.5625 2.41406H3.49219V3.15625C3.49219 3.27435 3.5391 3.38762 3.62262 3.47113C3.70613 3.55465 3.8194 3.60156 3.9375 3.60156C4.0556 3.60156 4.16887 3.55465 4.25238 3.47113C4.3359 3.38762 4.38281 3.27435 4.38281 3.15625V2.41406H10.6172V3.15625C10.6172 3.27435 10.6641 3.38762 10.7476 3.47113C10.8311 3.55465 10.9444 3.60156 11.0625 3.60156C11.1806 3.60156 11.2939 3.55465 11.3774 3.47113C11.4609 3.38762 11.5078 3.27435 11.5078 3.15625V2.41406H13.4375C13.4769 2.41406 13.5146 2.4297 13.5425 2.45754C13.5703 2.48538 13.5859 2.52313 13.5859 2.5625V5.08594H1.41406V2.5625C1.41406 2.52313 1.4297 2.48538 1.45754 2.45754C1.48538 2.4297 1.52313 2.41406 1.5625 2.41406ZM13.4375 14.5859H1.5625C1.52313 14.5859 1.48538 14.5703 1.45754 14.5425C1.4297 14.5146 1.41406 14.4769 1.41406 14.4375V5.97656H13.5859V14.4375C13.5859 14.4769 13.5703 14.5146 13.5425 14.5425C13.5146 14.5703 13.4769 14.5859 13.4375 14.5859Z" fill="#4D60DD"/>
</svg>
