<svg width="50" height="50" viewBox="0 0 50 50" fill="none" xmlns="http://www.w3.org/2000/svg">
<rect x="0.5" y="0.5" width="49" height="49" rx="6.5" fill="white" fill-opacity="0.8" stroke="white"/>
<path d="M36.75 28.7995L30.8875 26.2995C30.585 26.1639 30.253 26.1077 29.9227 26.1362C29.5924 26.1646 29.2749 26.2767 29 26.462L25.8625 28.5495C23.9503 27.6208 22.4021 26.0814 21.4625 24.1745V24.1745L23.5375 20.9995C23.7216 20.7244 23.834 20.4076 23.8645 20.078C23.8951 19.7484 23.8428 19.4163 23.7125 19.112L21.2 13.2495C21.0247 12.8537 20.7278 12.5239 20.3525 12.3082C19.9771 12.0924 19.5428 12.0018 19.1125 12.0495C17.4245 12.2707 15.8742 13.0972 14.7499 14.3756C13.6256 15.654 13.0038 17.2971 13 18.9995C13 28.9245 21.075 36.9995 31 36.9995C32.7024 36.9958 34.3456 36.3739 35.6239 35.2496C36.9023 34.1253 37.7289 32.575 37.95 30.887C37.9977 30.4567 37.9071 30.0224 37.6913 29.647C37.4756 29.2717 37.1459 28.9748 36.75 28.7995Z" fill="#4975E7"/>
</svg>
