<svg width="117" height="122" viewBox="0 0 117 122" fill="none" xmlns="http://www.w3.org/2000/svg">
<g opacity="0.5">
<path d="M58.5 6.30825V4.7073C58.5 2.10795 56.392 0 53.7927 0H4.7073C2.10795 0 0 2.10795 0 4.7073V89.5928H117V11.0155C117 8.4162 114.892 6.30825 112.293 6.30825H58.5Z" fill="#6B49CC" fill-opacity="0.6"/>
<path d="M112.902 13.0918H5.19531V90.4541H112.902V13.0918Z" fill="white"/>
<path d="M56.8308 22.7645L55.0933 27.5791H4.7073C2.10795 27.5791 0 29.687 0 32.2864V92.2216C0 94.8209 2.10795 96.9289 4.7073 96.9289H112.293C114.892 96.9289 117 94.8209 117 92.2216V24.3616C117 21.7622 114.892 19.6543 112.293 19.6543H61.2592C59.2761 19.6543 57.5035 20.8984 56.8308 22.7645Z" fill="#6B49CC" fill-opacity="0.96"/>
<path d="M117 92.2235V53.1475C84.5014 84.757 28.1328 93.2161 1.30859 95.4742C2.16464 96.3692 3.36974 96.9308 4.70744 96.9308H112.293C114.892 96.9308 117 94.8229 117 92.2235Z" fill="#6B24D6"/>
<path d="M47.5122 31.3701H7.72828C5.62813 31.3701 3.92773 33.0725 3.92773 35.1707V43.5908C10.6201 39.0063 25.7209 33.2304 47.5141 31.3701H47.5122Z" fill="#6B24D6"/>
<path d="M86.5176 83.7328L74.1957 71.4133C77.7671 67.1257 79.548 61.6262 79.1679 56.0589C78.7878 50.4916 76.2759 45.2852 72.1549 41.5227C68.0339 37.7602 62.621 35.7314 57.0422 35.8581C51.4634 35.9849 46.1483 38.2576 42.2025 42.2034C38.2566 46.1493 35.984 51.4644 35.8572 57.0432C35.7304 62.622 37.7593 68.0349 41.5217 72.1559C45.2842 76.2769 50.4906 78.7887 56.0579 79.1688C61.6252 79.5489 67.1247 77.768 71.4124 74.1967L83.7318 86.5186C83.9147 86.7015 84.1319 86.8466 84.3709 86.9456C84.6099 87.0446 84.866 87.0955 85.1247 87.0955C85.3834 87.0955 85.6395 87.0446 85.8785 86.9456C86.1175 86.8466 86.3347 86.7015 86.5176 86.5186C86.7005 86.3357 86.8456 86.1185 86.9446 85.8795C87.0436 85.6405 87.0946 85.3844 87.0946 85.1257C87.0946 84.867 87.0436 84.6109 86.9446 84.3719C86.8456 84.1329 86.7005 83.9157 86.5176 83.7328ZM39.8435 57.5632C39.8435 54.0587 40.8826 50.633 42.8296 47.7192C44.7766 44.8053 47.5439 42.5343 50.7815 41.1932C54.0192 39.8521 57.5819 39.5012 61.019 40.1849C64.4561 40.8686 67.6132 42.5561 70.0913 45.0341C72.5693 47.5121 74.2568 50.6693 74.9405 54.1064C75.6242 57.5435 75.2733 61.1062 73.9322 64.3439C72.5911 67.5815 70.3201 70.3488 67.4062 72.2958C64.4924 74.2427 61.0666 75.2819 57.5622 75.2819C52.8645 75.2767 48.3607 73.4083 45.0389 70.0865C41.7171 66.7647 39.8487 62.2609 39.8435 57.5632Z" fill="white"/>
<path d="M65.6912 65.4964C65.7696 65.5748 65.8318 65.6679 65.8742 65.7703C65.9166 65.8727 65.9384 65.9825 65.9384 66.0934C65.9384 66.2042 65.9166 66.314 65.8742 66.4164C65.8318 66.5189 65.7696 66.6119 65.6912 66.6903C65.6128 66.7687 65.5197 66.8309 65.4173 66.8733C65.3149 66.9157 65.2051 66.9376 65.0942 66.9376C64.9834 66.9376 64.8736 66.9157 64.7712 66.8733C64.6687 66.8309 64.5757 66.7687 64.4973 66.6903L57.5005 59.6925L50.5037 66.6903C50.3454 66.8486 50.1306 66.9376 49.9067 66.9376C49.6828 66.9376 49.4681 66.8486 49.3098 66.6903C49.1514 66.532 49.0625 66.3173 49.0625 66.0934C49.0625 65.8695 49.1514 65.6547 49.3098 65.4964L56.3076 58.4996L49.3098 51.5028C49.1514 51.3445 49.0625 51.1298 49.0625 50.9059C49.0625 50.682 49.1514 50.4672 49.3098 50.3089C49.4681 50.1506 49.6828 50.0616 49.9067 50.0616C50.1306 50.0616 50.3454 50.1506 50.5037 50.3089L57.5005 57.3068L64.4973 50.3089C64.6556 50.1506 64.8703 50.0616 65.0942 50.0616C65.3181 50.0616 65.5329 50.1506 65.6912 50.3089C65.8495 50.4672 65.9384 50.682 65.9384 50.9059C65.9384 51.1298 65.8495 51.3445 65.6912 51.5028L58.6933 58.4996L65.6912 65.4964Z" fill="white"/>
<path d="M11.7102 106.364V118H9.83523L4.35227 110.074H4.25568V118H2.14773V106.364H4.03409L9.51136 114.295H9.61364V106.364H11.7102ZM17.723 118.17C16.8707 118.17 16.1321 117.983 15.5071 117.608C14.8821 117.233 14.3973 116.708 14.0526 116.034C13.7116 115.36 13.5412 114.572 13.5412 113.67C13.5412 112.769 13.7116 111.979 14.0526 111.301C14.3973 110.623 14.8821 110.097 15.5071 109.722C16.1321 109.347 16.8707 109.159 17.723 109.159C18.5753 109.159 19.3139 109.347 19.9389 109.722C20.5639 110.097 21.0469 110.623 21.3878 111.301C21.7325 111.979 21.9048 112.769 21.9048 113.67C21.9048 114.572 21.7325 115.36 21.3878 116.034C21.0469 116.708 20.5639 117.233 19.9389 117.608C19.3139 117.983 18.5753 118.17 17.723 118.17ZM17.7344 116.523C18.1965 116.523 18.5829 116.396 18.8935 116.142C19.2041 115.884 19.4351 115.54 19.5866 115.108C19.742 114.676 19.8196 114.195 19.8196 113.665C19.8196 113.131 19.742 112.648 19.5866 112.216C19.4351 111.78 19.2041 111.434 18.8935 111.176C18.5829 110.919 18.1965 110.79 17.7344 110.79C17.2609 110.79 16.867 110.919 16.5526 111.176C16.242 111.434 16.009 111.78 15.8537 112.216C15.7022 112.648 15.6264 113.131 15.6264 113.665C15.6264 114.195 15.7022 114.676 15.8537 115.108C16.009 115.54 16.242 115.884 16.5526 116.142C16.867 116.396 17.2609 116.523 17.7344 116.523ZM31.6534 118H27.7102V106.364H31.733C32.8883 106.364 33.8807 106.597 34.7102 107.062C35.5436 107.525 36.1837 108.189 36.6307 109.057C37.0777 109.924 37.3011 110.962 37.3011 112.17C37.3011 113.383 37.0758 114.424 36.625 115.295C36.178 116.167 35.5322 116.835 34.6875 117.301C33.8466 117.767 32.8352 118 31.6534 118ZM29.8182 116.176H31.5511C32.3617 116.176 33.0379 116.028 33.5795 115.733C34.1212 115.434 34.5284 114.989 34.8011 114.398C35.0739 113.803 35.2102 113.061 35.2102 112.17C35.2102 111.28 35.0739 110.542 34.8011 109.955C34.5284 109.364 34.125 108.922 33.5909 108.631C33.0606 108.335 32.4015 108.188 31.6136 108.188H29.8182V116.176ZM41.7244 118.176C41.1714 118.176 40.6733 118.078 40.2301 117.881C39.7907 117.68 39.4422 117.384 39.1847 116.994C38.9309 116.604 38.804 116.123 38.804 115.551C38.804 115.059 38.8949 114.652 39.0767 114.33C39.2585 114.008 39.5066 113.75 39.821 113.557C40.1354 113.364 40.4896 113.218 40.8835 113.119C41.2813 113.017 41.6922 112.943 42.1165 112.898C42.6278 112.845 43.0426 112.797 43.3608 112.756C43.679 112.71 43.91 112.642 44.054 112.551C44.2017 112.456 44.2756 112.311 44.2756 112.114V112.08C44.2756 111.652 44.1487 111.32 43.8949 111.085C43.6411 110.85 43.2756 110.733 42.7983 110.733C42.2945 110.733 41.8949 110.843 41.5994 111.062C41.3078 111.282 41.1108 111.542 41.0085 111.841L39.0881 111.568C39.2396 111.038 39.4896 110.595 39.8381 110.239C40.1866 109.879 40.6127 109.61 41.1165 109.432C41.6203 109.25 42.1771 109.159 42.7869 109.159C43.2074 109.159 43.6259 109.208 44.0426 109.307C44.4593 109.405 44.84 109.568 45.1847 109.795C45.5294 110.019 45.8059 110.324 46.0142 110.71C46.2263 111.097 46.3324 111.58 46.3324 112.159V118H44.3551V116.801H44.2869C44.1619 117.044 43.9858 117.271 43.7585 117.483C43.535 117.691 43.2528 117.86 42.9119 117.989C42.5748 118.114 42.179 118.176 41.7244 118.176ZM42.2585 116.665C42.6714 116.665 43.0294 116.583 43.3324 116.42C43.6354 116.254 43.8684 116.034 44.0312 115.761C44.1979 115.489 44.2812 115.191 44.2812 114.869V113.841C44.2169 113.894 44.107 113.943 43.9517 113.989C43.8002 114.034 43.6297 114.074 43.4403 114.108C43.2509 114.142 43.0634 114.172 42.8778 114.199C42.6922 114.225 42.5313 114.248 42.3949 114.267C42.0881 114.309 41.8134 114.377 41.571 114.472C41.3286 114.566 41.1373 114.699 40.9972 114.869C40.857 115.036 40.7869 115.252 40.7869 115.517C40.7869 115.896 40.9252 116.182 41.2017 116.375C41.4782 116.568 41.8305 116.665 42.2585 116.665ZM52.7585 109.273V110.864H47.7415V109.273H52.7585ZM48.9801 107.182H51.0369V115.375C51.0369 115.652 51.0786 115.864 51.1619 116.011C51.2491 116.155 51.3627 116.254 51.5028 116.307C51.643 116.36 51.7983 116.386 51.9688 116.386C52.0975 116.386 52.215 116.377 52.321 116.358C52.4309 116.339 52.5142 116.322 52.571 116.307L52.9176 117.915C52.8078 117.953 52.6506 117.994 52.446 118.04C52.2453 118.085 51.9991 118.112 51.7074 118.119C51.1922 118.134 50.7282 118.057 50.3153 117.886C49.9025 117.712 49.5748 117.443 49.3324 117.08C49.0938 116.716 48.9763 116.261 48.9801 115.716V107.182ZM56.9901 118.176C56.437 118.176 55.9389 118.078 55.4957 117.881C55.0563 117.68 54.7079 117.384 54.4503 116.994C54.1965 116.604 54.0696 116.123 54.0696 115.551C54.0696 115.059 54.1605 114.652 54.3423 114.33C54.5241 114.008 54.7723 113.75 55.0866 113.557C55.401 113.364 55.7552 113.218 56.1491 113.119C56.5469 113.017 56.9579 112.943 57.3821 112.898C57.8935 112.845 58.3082 112.797 58.6264 112.756C58.9446 112.71 59.1757 112.642 59.3196 112.551C59.4673 112.456 59.5412 112.311 59.5412 112.114V112.08C59.5412 111.652 59.4143 111.32 59.1605 111.085C58.9067 110.85 58.5412 110.733 58.0639 110.733C57.5601 110.733 57.1605 110.843 56.8651 111.062C56.5734 111.282 56.3764 111.542 56.2741 111.841L54.3537 111.568C54.5052 111.038 54.7552 110.595 55.1037 110.239C55.4522 109.879 55.8783 109.61 56.3821 109.432C56.8859 109.25 57.4427 109.159 58.0526 109.159C58.473 109.159 58.8916 109.208 59.3082 109.307C59.7249 109.405 60.1056 109.568 60.4503 109.795C60.795 110.019 61.0715 110.324 61.2798 110.71C61.492 111.097 61.598 111.58 61.598 112.159V118H59.6207V116.801H59.5526C59.4276 117.044 59.2514 117.271 59.0241 117.483C58.8007 117.691 58.5185 117.86 58.1776 117.989C57.8404 118.114 57.4446 118.176 56.9901 118.176ZM57.5241 116.665C57.937 116.665 58.295 116.583 58.598 116.42C58.901 116.254 59.134 116.034 59.2969 115.761C59.4635 115.489 59.5469 115.191 59.5469 114.869V113.841C59.4825 113.894 59.3726 113.943 59.2173 113.989C59.0658 114.034 58.8954 114.074 58.706 114.108C58.5166 114.142 58.3291 114.172 58.1435 114.199C57.9579 114.225 57.7969 114.248 57.6605 114.267C57.3537 114.309 57.0791 114.377 56.8366 114.472C56.5942 114.566 56.4029 114.699 56.2628 114.869C56.1226 115.036 56.0526 115.252 56.0526 115.517C56.0526 115.896 56.1908 116.182 56.4673 116.375C56.7438 116.568 57.0961 116.665 57.5241 116.665ZM67.7259 118V106.364H75.1804V108.131H69.8338V111.29H74.669V113.057H69.8338V118H67.7259ZM80.1761 118.17C79.3239 118.17 78.5852 117.983 77.9602 117.608C77.3352 117.233 76.8504 116.708 76.5057 116.034C76.1648 115.36 75.9943 114.572 75.9943 113.67C75.9943 112.769 76.1648 111.979 76.5057 111.301C76.8504 110.623 77.3352 110.097 77.9602 109.722C78.5852 109.347 79.3239 109.159 80.1761 109.159C81.0284 109.159 81.767 109.347 82.392 109.722C83.017 110.097 83.5 110.623 83.8409 111.301C84.1856 111.979 84.358 112.769 84.358 113.67C84.358 114.572 84.1856 115.36 83.8409 116.034C83.5 116.708 83.017 117.233 82.392 117.608C81.767 117.983 81.0284 118.17 80.1761 118.17ZM80.1875 116.523C80.6496 116.523 81.036 116.396 81.3466 116.142C81.6572 115.884 81.8883 115.54 82.0398 115.108C82.1951 114.676 82.2727 114.195 82.2727 113.665C82.2727 113.131 82.1951 112.648 82.0398 112.216C81.8883 111.78 81.6572 111.434 81.3466 111.176C81.036 110.919 80.6496 110.79 80.1875 110.79C79.714 110.79 79.3201 110.919 79.0057 111.176C78.6951 111.434 78.4621 111.78 78.3068 112.216C78.1553 112.648 78.0795 113.131 78.0795 113.665C78.0795 114.195 78.1553 114.676 78.3068 115.108C78.4621 115.54 78.6951 115.884 79.0057 116.142C79.3201 116.396 79.714 116.523 80.1875 116.523ZM91.6662 114.33V109.273H93.723V118H91.7287V116.449H91.6378C91.4408 116.937 91.117 117.337 90.6662 117.648C90.2192 117.958 89.6681 118.114 89.0128 118.114C88.4408 118.114 87.9351 117.987 87.4957 117.733C87.0601 117.475 86.7192 117.102 86.473 116.614C86.2268 116.121 86.1037 115.527 86.1037 114.83V109.273H88.1605V114.511C88.1605 115.064 88.312 115.504 88.6151 115.83C88.9181 116.155 89.3158 116.318 89.8082 116.318C90.1113 116.318 90.4048 116.244 90.6889 116.097C90.973 115.949 91.206 115.729 91.3878 115.438C91.5734 115.142 91.6662 114.773 91.6662 114.33ZM97.8949 112.886V118H95.8381V109.273H97.804V110.756H97.9062C98.107 110.267 98.4271 109.879 98.8665 109.591C99.3097 109.303 99.857 109.159 100.509 109.159C101.111 109.159 101.635 109.288 102.082 109.545C102.533 109.803 102.882 110.176 103.128 110.665C103.378 111.153 103.501 111.746 103.497 112.443V118H101.44V112.761C101.44 112.178 101.289 111.722 100.986 111.392C100.687 111.062 100.272 110.898 99.7415 110.898C99.3816 110.898 99.0616 110.977 98.7812 111.136C98.5047 111.292 98.2869 111.517 98.1278 111.812C97.9725 112.108 97.8949 112.466 97.8949 112.886ZM108.827 118.153C108.141 118.153 107.527 117.977 106.986 117.625C106.444 117.273 106.016 116.761 105.702 116.091C105.387 115.42 105.23 114.606 105.23 113.648C105.23 112.678 105.389 111.86 105.707 111.193C106.029 110.523 106.463 110.017 107.009 109.676C107.554 109.331 108.162 109.159 108.832 109.159C109.344 109.159 109.764 109.246 110.094 109.42C110.423 109.591 110.685 109.797 110.878 110.04C111.071 110.278 111.221 110.504 111.327 110.716H111.412V106.364H113.474V118H111.452V116.625H111.327C111.221 116.837 111.067 117.062 110.866 117.301C110.666 117.536 110.401 117.737 110.071 117.903C109.741 118.07 109.327 118.153 108.827 118.153ZM109.401 116.466C109.836 116.466 110.207 116.348 110.514 116.114C110.821 115.875 111.054 115.544 111.213 115.119C111.372 114.695 111.452 114.201 111.452 113.636C111.452 113.072 111.372 112.581 111.213 112.165C111.058 111.748 110.827 111.424 110.52 111.193C110.217 110.962 109.844 110.847 109.401 110.847C108.942 110.847 108.56 110.966 108.253 111.205C107.946 111.443 107.715 111.773 107.56 112.193C107.404 112.614 107.327 113.095 107.327 113.636C107.327 114.182 107.404 114.669 107.56 115.097C107.719 115.521 107.952 115.856 108.259 116.102C108.569 116.345 108.95 116.466 109.401 116.466Z" fill="#6B24D6"/>
</g>
</svg>
