<svg width="32" height="32" viewBox="0 0 32 32" fill="none" xmlns="http://www.w3.org/2000/svg">
<path d="M27.6002 21.9875C26.8627 20.7125 25.9752 18.2875 25.9752 14V13.1125C25.9752 7.575 21.5377 3.0375 16.0752 3H16.0002C14.6886 3.00164 13.3902 3.2616 12.1791 3.76503C10.968 4.26847 9.86792 5.00552 8.94166 5.93411C8.01539 6.86269 7.2811 7.96463 6.78069 9.177C6.28029 10.3894 6.02358 11.6884 6.02523 13V14C6.02523 18.2875 5.13773 20.7125 4.40023 21.9875C4.22187 22.2913 4.12693 22.6369 4.12503 22.9892C4.12313 23.3415 4.21433 23.6881 4.3894 23.9938C4.56447 24.2996 4.8172 24.5536 5.12202 24.7303C5.42683 24.907 5.77291 25 6.12523 25H11.0002C11.0002 26.3261 11.527 27.5979 12.4647 28.5355C13.4024 29.4732 14.6741 30 16.0002 30C17.3263 30 18.5981 29.4732 19.5358 28.5355C20.4734 27.5979 21.0002 26.3261 21.0002 25H25.8752C26.2275 25.0022 26.574 24.9108 26.8793 24.7351C27.1846 24.5594 27.4377 24.3057 27.6127 24C27.7862 23.6926 27.8764 23.3451 27.8742 22.9921C27.872 22.6391 27.7776 22.2928 27.6002 21.9875V21.9875ZM16.0002 28C15.2056 27.9967 14.4444 27.6796 13.8825 27.1177C13.3206 26.5558 13.0035 25.7946 13.0002 25H19.0002C18.9969 25.7946 18.6798 26.5558 18.1179 27.1177C17.556 27.6796 16.7949 27.9967 16.0002 28Z" fill="url(#paint0_linear_648_20506)"/>
<defs>
<linearGradient id="paint0_linear_648_20506" x1="15.9996" y1="3" x2="15.9996" y2="30" gradientUnits="userSpaceOnUse">
<stop stop-color="#3F48BF"/>
<stop offset="1" stop-color="#4172E0"/>
</linearGradient>
</defs>
</svg>
