<svg width="40" height="42" viewBox="0 0 40 42" fill="none" xmlns="http://www.w3.org/2000/svg">
<path d="M20 21C24.9706 21 29 16.9706 29 12C29 7.02944 24.9706 3 20 3C15.0294 3 11 7.02944 11 12C11 16.9706 15.0294 21 20 21Z" stroke="#FE8C06" stroke-width="1.125" stroke-linecap="round" stroke-linejoin="round"/>
<path d="M20 6.75V12H25.25" stroke="#FE8C06" stroke-width="1.125" stroke-linecap="round" stroke-linejoin="round"/>
<path d="M3.79199 31.9331H1.70264V31.0898H3.79199C4.19661 31.0898 4.52425 31.0254 4.7749 30.8965C5.02555 30.7676 5.20817 30.5885 5.32275 30.3594C5.44092 30.1302 5.5 29.8688 5.5 29.5752C5.5 29.3066 5.44092 29.0542 5.32275 28.8179C5.20817 28.5815 5.02555 28.3918 4.7749 28.2485C4.52425 28.1017 4.19661 28.0283 3.79199 28.0283H1.94434V35H0.907715V27.1797H3.79199C4.38281 27.1797 4.88232 27.2817 5.29053 27.4858C5.69873 27.6899 6.00846 27.9728 6.21973 28.3345C6.43099 28.6925 6.53662 29.1025 6.53662 29.5645C6.53662 30.0658 6.43099 30.4937 6.21973 30.8481C6.00846 31.2026 5.69873 31.473 5.29053 31.6592C4.88232 31.8418 4.38281 31.9331 3.79199 31.9331ZM10.0332 35.1074C9.62858 35.1074 9.26156 35.0394 8.93213 34.9033C8.60628 34.7637 8.3252 34.5685 8.08887 34.3179C7.85612 34.0672 7.67708 33.77 7.55176 33.4263C7.42643 33.0825 7.36377 32.7065 7.36377 32.2983V32.0728C7.36377 31.6001 7.43359 31.1794 7.57324 30.8105C7.71289 30.4382 7.90267 30.123 8.14258 29.8652C8.38249 29.6074 8.65462 29.4123 8.95898 29.2798C9.26335 29.1473 9.57845 29.0811 9.9043 29.0811C10.3197 29.0811 10.6777 29.1527 10.9785 29.2959C11.2829 29.4391 11.5317 29.6396 11.7251 29.8975C11.9185 30.1517 12.0617 30.4525 12.1548 30.7998C12.2479 31.1436 12.2944 31.5195 12.2944 31.9277V32.3735H7.95459V31.5625H11.3008V31.4873C11.2865 31.2295 11.2327 30.9788 11.1396 30.7354C11.0501 30.4919 10.9069 30.2913 10.71 30.1338C10.513 29.9762 10.2445 29.8975 9.9043 29.8975C9.67871 29.8975 9.47103 29.9458 9.28125 30.0425C9.09147 30.1356 8.92855 30.2752 8.79248 30.4614C8.65641 30.6476 8.55078 30.875 8.47559 31.1436C8.40039 31.4121 8.36279 31.7218 8.36279 32.0728V32.2983C8.36279 32.5741 8.40039 32.8337 8.47559 33.0771C8.55436 33.3171 8.66715 33.5283 8.81396 33.7109C8.96436 33.8936 9.14518 34.0368 9.35645 34.1406C9.57129 34.2445 9.81478 34.2964 10.0869 34.2964C10.4378 34.2964 10.735 34.2248 10.9785 34.0815C11.222 33.9383 11.4351 33.7467 11.6177 33.5068L12.2192 33.9849C12.0939 34.1746 11.9346 34.3555 11.7412 34.5273C11.5479 34.6992 11.3097 34.8389 11.0269 34.9463C10.7476 35.0537 10.4163 35.1074 10.0332 35.1074ZM14.4482 30.4292V35H13.4546V29.1885H14.3945L14.4482 30.4292ZM14.2119 31.874L13.7983 31.8579C13.8019 31.4604 13.861 31.0934 13.9756 30.7568C14.0902 30.4167 14.2513 30.1213 14.459 29.8706C14.6667 29.62 14.9137 29.4266 15.2002 29.2905C15.4902 29.1509 15.8107 29.0811 16.1616 29.0811C16.4481 29.0811 16.7059 29.1204 16.9351 29.1992C17.1642 29.2744 17.3594 29.3962 17.5205 29.5645C17.6852 29.7327 17.8105 29.9512 17.8965 30.2197C17.9824 30.4847 18.0254 30.8088 18.0254 31.1919V35H17.0264V31.1812C17.0264 30.8768 16.9816 30.6333 16.8921 30.4507C16.8026 30.2645 16.6719 30.1302 16.5 30.0479C16.3281 29.9619 16.1169 29.9189 15.8662 29.9189C15.6191 29.9189 15.3936 29.9709 15.1895 30.0747C14.9889 30.1785 14.8153 30.3218 14.6685 30.5044C14.5252 30.687 14.4124 30.8965 14.3301 31.1328C14.2513 31.3656 14.2119 31.6126 14.2119 31.874ZM23.1978 33.8721V26.75H24.1968V35H23.2837L23.1978 33.8721ZM19.2876 32.1587V32.0459C19.2876 31.6019 19.3413 31.1991 19.4487 30.8374C19.5597 30.4722 19.7155 30.1589 19.916 29.8975C20.1201 29.6361 20.3618 29.4355 20.6411 29.2959C20.924 29.1527 21.2391 29.0811 21.5864 29.0811C21.9517 29.0811 22.2703 29.1455 22.5425 29.2744C22.8182 29.3997 23.0509 29.5841 23.2407 29.8276C23.4341 30.0675 23.5863 30.3576 23.6973 30.6978C23.8083 31.0379 23.8853 31.4229 23.9282 31.8525V32.3467C23.8888 32.7728 23.8118 33.1559 23.6973 33.4961C23.5863 33.8363 23.4341 34.1263 23.2407 34.3662C23.0509 34.6061 22.8182 34.7905 22.5425 34.9194C22.2668 35.0448 21.9445 35.1074 21.5757 35.1074C21.2355 35.1074 20.924 35.034 20.6411 34.8872C20.3618 34.7404 20.1201 34.5345 19.916 34.2695C19.7155 34.0046 19.5597 33.693 19.4487 33.335C19.3413 32.9733 19.2876 32.5812 19.2876 32.1587ZM20.2866 32.0459V32.1587C20.2866 32.4487 20.3153 32.7209 20.3726 32.9751C20.4334 33.2293 20.5265 33.4531 20.6519 33.6465C20.7772 33.8398 20.9365 33.992 21.1299 34.103C21.3232 34.2104 21.5542 34.2642 21.8228 34.2642C22.1522 34.2642 22.4225 34.1943 22.6338 34.0547C22.8486 33.915 23.0205 33.7306 23.1494 33.5015C23.2783 33.2723 23.3786 33.0234 23.4502 32.7549V31.4604C23.4072 31.2635 23.3446 31.0737 23.2622 30.8911C23.1834 30.7049 23.0796 30.5402 22.9507 30.397C22.8254 30.2502 22.6696 30.1338 22.4834 30.0479C22.3008 29.9619 22.0841 29.9189 21.8335 29.9189C21.5614 29.9189 21.3268 29.9762 21.1299 30.0908C20.9365 30.2018 20.7772 30.3558 20.6519 30.5527C20.5265 30.7461 20.4334 30.9717 20.3726 31.2295C20.3153 31.4837 20.2866 31.7559 20.2866 32.0459ZM26.8232 29.1885V35H25.8242V29.1885H26.8232ZM25.749 27.647C25.749 27.4858 25.7974 27.3498 25.894 27.2388C25.9943 27.1278 26.1411 27.0723 26.3345 27.0723C26.5243 27.0723 26.6693 27.1278 26.7695 27.2388C26.8734 27.3498 26.9253 27.4858 26.9253 27.647C26.9253 27.8009 26.8734 27.9334 26.7695 28.0444C26.6693 28.1519 26.5243 28.2056 26.3345 28.2056C26.1411 28.2056 25.9943 28.1519 25.894 28.0444C25.7974 27.9334 25.749 27.8009 25.749 27.647ZM29.4121 30.4292V35H28.4185V29.1885H29.3584L29.4121 30.4292ZM29.1758 31.874L28.7622 31.8579C28.7658 31.4604 28.8249 31.0934 28.9395 30.7568C29.054 30.4167 29.2152 30.1213 29.4229 29.8706C29.6305 29.62 29.8776 29.4266 30.1641 29.2905C30.4541 29.1509 30.7746 29.0811 31.1255 29.0811C31.4119 29.0811 31.6698 29.1204 31.8989 29.1992C32.1281 29.2744 32.3232 29.3962 32.4844 29.5645C32.6491 29.7327 32.7744 29.9512 32.8604 30.2197C32.9463 30.4847 32.9893 30.8088 32.9893 31.1919V35H31.9902V31.1812C31.9902 30.8768 31.9455 30.6333 31.856 30.4507C31.7664 30.2645 31.6357 30.1302 31.4639 30.0479C31.292 29.9619 31.0807 29.9189 30.8301 29.9189C30.583 29.9189 30.3574 29.9709 30.1533 30.0747C29.9528 30.1785 29.7791 30.3218 29.6323 30.5044C29.4891 30.687 29.3763 30.8965 29.2939 31.1328C29.2152 31.3656 29.1758 31.6126 29.1758 31.874ZM38.2637 29.1885H39.166V34.8765C39.166 35.3885 39.0622 35.8254 38.8545 36.187C38.6468 36.5487 38.3568 36.8226 37.9844 37.0088C37.6156 37.1986 37.1895 37.2935 36.7061 37.2935C36.5055 37.2935 36.2692 37.2612 35.9971 37.1968C35.7285 37.1359 35.4635 37.0303 35.2021 36.8799C34.9443 36.7331 34.7277 36.5343 34.5522 36.2837L35.0732 35.6929C35.3167 35.9865 35.571 36.1906 35.8359 36.3052C36.1045 36.4198 36.3695 36.4771 36.6309 36.4771C36.946 36.4771 37.2181 36.418 37.4473 36.2998C37.6764 36.1816 37.8537 36.0062 37.979 35.7734C38.1079 35.5443 38.1724 35.2614 38.1724 34.9248V30.4668L38.2637 29.1885ZM34.2622 32.1587V32.0459C34.2622 31.6019 34.3141 31.1991 34.418 30.8374C34.5254 30.4722 34.6776 30.1589 34.8745 29.8975C35.075 29.6361 35.3167 29.4355 35.5996 29.2959C35.8825 29.1527 36.2012 29.0811 36.5557 29.0811C36.9209 29.0811 37.2396 29.1455 37.5117 29.2744C37.7874 29.3997 38.0202 29.5841 38.21 29.8276C38.4033 30.0675 38.5555 30.3576 38.6665 30.6978C38.7775 31.0379 38.8545 31.4229 38.8975 31.8525V32.3467C38.8581 32.7728 38.7811 33.1559 38.6665 33.4961C38.5555 33.8363 38.4033 34.1263 38.21 34.3662C38.0202 34.6061 37.7874 34.7905 37.5117 34.9194C37.236 35.0448 36.9137 35.1074 36.5449 35.1074C36.1976 35.1074 35.8825 35.034 35.5996 34.8872C35.3203 34.7404 35.0804 34.5345 34.8799 34.2695C34.6794 34.0046 34.5254 33.693 34.418 33.335C34.3141 32.9733 34.2622 32.5812 34.2622 32.1587ZM35.2559 32.0459V32.1587C35.2559 32.4487 35.2845 32.7209 35.3418 32.9751C35.4027 33.2293 35.494 33.4531 35.6157 33.6465C35.741 33.8398 35.9004 33.992 36.0938 34.103C36.2871 34.2104 36.5181 34.2642 36.7866 34.2642C37.116 34.2642 37.3882 34.1943 37.603 34.0547C37.8179 33.915 37.988 33.7306 38.1133 33.5015C38.2422 33.2723 38.3424 33.0234 38.4141 32.7549V31.4604C38.3747 31.2635 38.3138 31.0737 38.2314 30.8911C38.1527 30.7049 38.0488 30.5402 37.9199 30.397C37.7946 30.2502 37.6388 30.1338 37.4526 30.0479C37.2664 29.9619 37.048 29.9189 36.7974 29.9189C36.5252 29.9189 36.2907 29.9762 36.0938 30.0908C35.9004 30.2018 35.741 30.3558 35.6157 30.5527C35.494 30.7461 35.4027 30.9717 35.3418 31.2295C35.2845 31.4837 35.2559 31.7559 35.2559 32.0459Z" fill="#FE8C06"/>
</svg>
