<svg width="43" height="42" viewBox="0 0 43 42" fill="none" xmlns="http://www.w3.org/2000/svg">
<path d="M0.907715 27.1797H3.49658C4.08382 27.1797 4.57975 27.2692 4.98438 27.4482C5.39258 27.6273 5.70231 27.8923 5.91357 28.2432C6.12842 28.5905 6.23584 29.0184 6.23584 29.5269C6.23584 29.8849 6.16243 30.2126 6.01562 30.5098C5.8724 30.8034 5.66471 31.054 5.39258 31.2617C5.12402 31.4658 4.80176 31.618 4.42578 31.7183L4.13574 31.8311H1.70264L1.69189 30.9878H3.52881C3.9012 30.9878 4.21094 30.9233 4.45801 30.7944C4.70508 30.6619 4.89128 30.4847 5.0166 30.2627C5.14193 30.0407 5.20459 29.7954 5.20459 29.5269C5.20459 29.2261 5.14551 28.9629 5.02734 28.7373C4.90918 28.5117 4.72298 28.3381 4.46875 28.2163C4.2181 28.091 3.89404 28.0283 3.49658 28.0283H1.94434V35H0.907715V27.1797ZM5.47852 35L3.57715 31.4551L4.65674 31.4497L6.58496 34.9355V35H5.47852ZM9.94727 35.1074C9.54264 35.1074 9.17562 35.0394 8.84619 34.9033C8.52035 34.7637 8.23926 34.5685 8.00293 34.3179C7.77018 34.0672 7.59115 33.77 7.46582 33.4263C7.34049 33.0825 7.27783 32.7065 7.27783 32.2983V32.0728C7.27783 31.6001 7.34766 31.1794 7.4873 30.8105C7.62695 30.4382 7.81673 30.123 8.05664 29.8652C8.29655 29.6074 8.56868 29.4123 8.87305 29.2798C9.17741 29.1473 9.49251 29.0811 9.81836 29.0811C10.2337 29.0811 10.5918 29.1527 10.8926 29.2959C11.1969 29.4391 11.4458 29.6396 11.6392 29.8975C11.8325 30.1517 11.9757 30.4525 12.0688 30.7998C12.1619 31.1436 12.2085 31.5195 12.2085 31.9277V32.3735H7.86865V31.5625H11.2148V31.4873C11.2005 31.2295 11.1468 30.9788 11.0537 30.7354C10.9642 30.4919 10.821 30.2913 10.624 30.1338C10.4271 29.9762 10.1585 29.8975 9.81836 29.8975C9.59277 29.8975 9.38509 29.9458 9.19531 30.0425C9.00553 30.1356 8.84261 30.2752 8.70654 30.4614C8.57048 30.6476 8.46484 30.875 8.38965 31.1436C8.31445 31.4121 8.27686 31.7218 8.27686 32.0728V32.2983C8.27686 32.5741 8.31445 32.8337 8.38965 33.0771C8.46842 33.3171 8.58122 33.5283 8.72803 33.7109C8.87842 33.8936 9.05924 34.0368 9.27051 34.1406C9.48535 34.2445 9.72884 34.2964 10.001 34.2964C10.3519 34.2964 10.6491 34.2248 10.8926 34.0815C11.1361 33.9383 11.3491 33.7467 11.5317 33.5068L12.1333 33.9849C12.008 34.1746 11.8486 34.3555 11.6553 34.5273C11.4619 34.6992 11.2238 34.8389 10.9409 34.9463C10.6616 35.0537 10.3304 35.1074 9.94727 35.1074ZM13.3955 29.1885H14.3945V35.6929C14.3945 36.0474 14.3372 36.3481 14.2227 36.5952C14.1117 36.8423 13.9434 37.0285 13.7178 37.1538C13.4958 37.2827 13.2147 37.3472 12.8745 37.3472C12.785 37.3472 12.6812 37.3382 12.563 37.3203C12.4412 37.3024 12.3392 37.2809 12.2568 37.2559L12.2622 36.4556C12.3302 36.4699 12.4072 36.4806 12.4932 36.4878C12.5791 36.4985 12.6543 36.5039 12.7188 36.5039C12.8656 36.5039 12.9891 36.4771 13.0894 36.4233C13.1896 36.3696 13.2648 36.2837 13.3149 36.1655C13.3687 36.0474 13.3955 35.8898 13.3955 35.6929V29.1885ZM13.2935 27.647C13.2935 27.4858 13.3436 27.3498 13.4438 27.2388C13.5441 27.1278 13.6891 27.0723 13.8789 27.0723C14.0723 27.0723 14.2191 27.1278 14.3193 27.2388C14.4196 27.3498 14.4697 27.4858 14.4697 27.647C14.4697 27.8009 14.4196 27.9334 14.3193 28.0444C14.2191 28.1519 14.0723 28.2056 13.8789 28.2056C13.6891 28.2056 13.5441 28.1519 13.4438 28.0444C13.3436 27.9334 13.2935 27.8009 13.2935 27.647ZM18.4121 35.1074C18.0075 35.1074 17.6405 35.0394 17.311 34.9033C16.9852 34.7637 16.7041 34.5685 16.4678 34.3179C16.235 34.0672 16.056 33.77 15.9307 33.4263C15.8053 33.0825 15.7427 32.7065 15.7427 32.2983V32.0728C15.7427 31.6001 15.8125 31.1794 15.9521 30.8105C16.0918 30.4382 16.2816 30.123 16.5215 29.8652C16.7614 29.6074 17.0335 29.4123 17.3379 29.2798C17.6423 29.1473 17.9574 29.0811 18.2832 29.0811C18.6986 29.0811 19.0566 29.1527 19.3574 29.2959C19.6618 29.4391 19.9106 29.6396 20.104 29.8975C20.2974 30.1517 20.4406 30.4525 20.5337 30.7998C20.6268 31.1436 20.6733 31.5195 20.6733 31.9277V32.3735H16.3335V31.5625H19.6797V31.4873C19.6654 31.2295 19.6117 30.9788 19.5186 30.7354C19.429 30.4919 19.2858 30.2913 19.0889 30.1338C18.8919 29.9762 18.6234 29.8975 18.2832 29.8975C18.0576 29.8975 17.8499 29.9458 17.6602 30.0425C17.4704 30.1356 17.3075 30.2752 17.1714 30.4614C17.0353 30.6476 16.9297 30.875 16.8545 31.1436C16.7793 31.4121 16.7417 31.7218 16.7417 32.0728V32.2983C16.7417 32.5741 16.7793 32.8337 16.8545 33.0771C16.9333 33.3171 17.0461 33.5283 17.1929 33.7109C17.3433 33.8936 17.5241 34.0368 17.7354 34.1406C17.9502 34.2445 18.1937 34.2964 18.4658 34.2964C18.8167 34.2964 19.1139 34.2248 19.3574 34.0815C19.6009 33.9383 19.814 33.7467 19.9966 33.5068L20.5981 33.9849C20.4728 34.1746 20.3135 34.3555 20.1201 34.5273C19.9268 34.6992 19.6886 34.8389 19.4058 34.9463C19.1265 35.0537 18.7952 35.1074 18.4121 35.1074ZM24.1592 34.291C24.3955 34.291 24.6139 34.2427 24.8145 34.146C25.015 34.0493 25.1797 33.9168 25.3086 33.7485C25.4375 33.5767 25.5109 33.3815 25.5288 33.1631H26.4741C26.4562 33.5068 26.3398 33.8273 26.125 34.1245C25.9137 34.4181 25.6362 34.6562 25.2925 34.8389C24.9487 35.0179 24.571 35.1074 24.1592 35.1074C23.7223 35.1074 23.341 35.0304 23.0151 34.8765C22.6929 34.7225 22.4243 34.5112 22.2095 34.2427C21.9982 33.9741 21.8389 33.6662 21.7314 33.3188C21.6276 32.9679 21.5757 32.5973 21.5757 32.207V31.9814C21.5757 31.5911 21.6276 31.2223 21.7314 30.875C21.8389 30.5241 21.9982 30.2144 22.2095 29.9458C22.4243 29.6772 22.6929 29.466 23.0151 29.312C23.341 29.158 23.7223 29.0811 24.1592 29.0811C24.6139 29.0811 25.0114 29.1742 25.3516 29.3604C25.6917 29.543 25.9585 29.7936 26.1519 30.1123C26.3488 30.4274 26.4562 30.7855 26.4741 31.1865H25.5288C25.5109 30.9466 25.4429 30.73 25.3247 30.5366C25.2101 30.3433 25.0526 30.1893 24.8521 30.0747C24.6551 29.9565 24.4242 29.8975 24.1592 29.8975C23.8548 29.8975 23.5988 29.9583 23.3911 30.0801C23.187 30.1982 23.0241 30.3594 22.9023 30.5635C22.7842 30.764 22.6982 30.9878 22.6445 31.2349C22.5944 31.4784 22.5693 31.7272 22.5693 31.9814V32.207C22.5693 32.4613 22.5944 32.7119 22.6445 32.959C22.6947 33.2061 22.7788 33.4299 22.897 33.6304C23.0187 33.8309 23.1816 33.992 23.3857 34.1138C23.5934 34.2319 23.8512 34.291 24.1592 34.291ZM30.0244 29.1885V29.9512H26.8823V29.1885H30.0244ZM27.9458 27.7759H28.9395V33.5605C28.9395 33.7575 28.9699 33.9061 29.0308 34.0063C29.0916 34.1066 29.1704 34.1729 29.2671 34.2051C29.3638 34.2373 29.4676 34.2534 29.5786 34.2534C29.661 34.2534 29.7469 34.2463 29.8364 34.2319C29.9295 34.214 29.9993 34.1997 30.0459 34.189L30.0513 35C29.9725 35.0251 29.8687 35.0483 29.7397 35.0698C29.6144 35.0949 29.4622 35.1074 29.2832 35.1074C29.0397 35.1074 28.8159 35.0591 28.6118 34.9624C28.4077 34.8657 28.2448 34.7046 28.123 34.479C28.0049 34.2498 27.9458 33.9419 27.9458 33.5552V27.7759ZM33.6016 35.1074C33.1969 35.1074 32.8299 35.0394 32.5005 34.9033C32.1746 34.7637 31.8936 34.5685 31.6572 34.3179C31.4245 34.0672 31.2454 33.77 31.1201 33.4263C30.9948 33.0825 30.9321 32.7065 30.9321 32.2983V32.0728C30.9321 31.6001 31.002 31.1794 31.1416 30.8105C31.2812 30.4382 31.471 30.123 31.7109 29.8652C31.9508 29.6074 32.223 29.4123 32.5273 29.2798C32.8317 29.1473 33.1468 29.0811 33.4727 29.0811C33.888 29.0811 34.2461 29.1527 34.5469 29.2959C34.8512 29.4391 35.1001 29.6396 35.2935 29.8975C35.4868 30.1517 35.63 30.4525 35.7231 30.7998C35.8162 31.1436 35.8628 31.5195 35.8628 31.9277V32.3735H31.5229V31.5625H34.8691V31.4873C34.8548 31.2295 34.8011 30.9788 34.708 30.7354C34.6185 30.4919 34.4753 30.2913 34.2783 30.1338C34.0814 29.9762 33.8128 29.8975 33.4727 29.8975C33.2471 29.8975 33.0394 29.9458 32.8496 30.0425C32.6598 30.1356 32.4969 30.2752 32.3608 30.4614C32.2248 30.6476 32.1191 30.875 32.0439 31.1436C31.9688 31.4121 31.9312 31.7218 31.9312 32.0728V32.2983C31.9312 32.5741 31.9688 32.8337 32.0439 33.0771C32.1227 33.3171 32.2355 33.5283 32.3823 33.7109C32.5327 33.8936 32.7135 34.0368 32.9248 34.1406C33.1396 34.2445 33.3831 34.2964 33.6553 34.2964C34.0062 34.2964 34.3034 34.2248 34.5469 34.0815C34.7904 33.9383 35.0034 33.7467 35.186 33.5068L35.7876 33.9849C35.6623 34.1746 35.5029 34.3555 35.3096 34.5273C35.1162 34.6992 34.8781 34.8389 34.5952 34.9463C34.3159 35.0537 33.9847 35.1074 33.6016 35.1074ZM40.686 33.8721V26.75H41.6851V35H40.772L40.686 33.8721ZM36.7759 32.1587V32.0459C36.7759 31.6019 36.8296 31.1991 36.937 30.8374C37.048 30.4722 37.2038 30.1589 37.4043 29.8975C37.6084 29.6361 37.8501 29.4355 38.1294 29.2959C38.4123 29.1527 38.7274 29.0811 39.0747 29.0811C39.4399 29.0811 39.7586 29.1455 40.0308 29.2744C40.3065 29.3997 40.5392 29.5841 40.729 29.8276C40.9224 30.0675 41.0745 30.3576 41.1855 30.6978C41.2965 31.0379 41.3735 31.4229 41.4165 31.8525V32.3467C41.3771 32.7728 41.3001 33.1559 41.1855 33.4961C41.0745 33.8363 40.9224 34.1263 40.729 34.3662C40.5392 34.6061 40.3065 34.7905 40.0308 34.9194C39.755 35.0448 39.4328 35.1074 39.064 35.1074C38.7238 35.1074 38.4123 35.034 38.1294 34.8872C37.8501 34.7404 37.6084 34.5345 37.4043 34.2695C37.2038 34.0046 37.048 33.693 36.937 33.335C36.8296 32.9733 36.7759 32.5812 36.7759 32.1587ZM37.7749 32.0459V32.1587C37.7749 32.4487 37.8035 32.7209 37.8608 32.9751C37.9217 33.2293 38.0148 33.4531 38.1401 33.6465C38.2655 33.8398 38.4248 33.992 38.6182 34.103C38.8115 34.2104 39.0425 34.2642 39.311 34.2642C39.6405 34.2642 39.9108 34.1943 40.1221 34.0547C40.3369 33.915 40.5088 33.7306 40.6377 33.5015C40.7666 33.2723 40.8669 33.0234 40.9385 32.7549V31.4604C40.8955 31.2635 40.8328 31.0737 40.7505 30.8911C40.6717 30.7049 40.5679 30.5402 40.439 30.397C40.3136 30.2502 40.1579 30.1338 39.9717 30.0479C39.7891 29.9619 39.5724 29.9189 39.3218 29.9189C39.0496 29.9189 38.8151 29.9762 38.6182 30.0908C38.4248 30.2018 38.2655 30.3558 38.1401 30.5527C38.0148 30.7461 37.9217 30.9717 37.8608 31.2295C37.8035 31.4837 37.7749 31.7559 37.7749 32.0459Z" fill="#262626" fill-opacity="0.6"/>
<path d="M21 21C25.9706 21 30 16.9706 30 12C30 7.02944 25.9706 3 21 3C16.0294 3 12 7.02944 12 12C12 16.9706 16.0294 21 21 21Z" stroke="#262626" stroke-opacity="0.6" stroke-width="1.125" stroke-linecap="round" stroke-linejoin="round"/>
<path d="M24 9L18 15" stroke="#262626" stroke-opacity="0.6" stroke-width="1.125" stroke-linecap="round" stroke-linejoin="round"/>
<path d="M24 15L18 9" stroke="#262626" stroke-opacity="0.6" stroke-width="1.125" stroke-linecap="round" stroke-linejoin="round"/>
</svg>
