<svg width="29" height="29" viewBox="0 0 29 29" fill="none" xmlns="http://www.w3.org/2000/svg">
<circle cx="14.5" cy="14.5" r="14" stroke="#FFB800" stroke-dasharray="2 2"/>
<path fill-rule="evenodd" clip-rule="evenodd" d="M3.04199 14.4998C3.04199 8.17171 8.1722 3.0415 14.5003 3.0415C20.8284 3.0415 25.9587 8.17171 25.9587 14.4998C25.9587 20.828 20.8284 25.9582 14.5003 25.9582C8.1722 25.9582 3.04199 20.828 3.04199 14.4998ZM10.3337 8.24984C10.0574 8.24984 9.79244 8.35958 9.59709 8.55493C9.40174 8.75028 9.29199 9.01524 9.29199 9.2915C9.29199 9.56777 9.40174 9.83272 9.59709 10.0281C9.79244 10.2234 10.0574 10.3332 10.3337 10.3332H13.4587C13.8128 10.3332 14.367 10.4478 14.8024 10.7623C15.0003 10.904 15.1899 11.0967 15.3285 11.3748H10.3305C10.0543 11.3748 9.78931 11.4846 9.59396 11.6799C9.39861 11.8753 9.28887 12.1402 9.28887 12.4165C9.28887 12.6928 9.39861 12.9577 9.59396 13.1531C9.78931 13.3484 10.0543 13.4582 10.3305 13.4582H15.3285C15.207 13.7027 15.0266 13.9132 14.8035 14.0707C14.407 14.3426 13.9393 14.4918 13.4587 14.4998H10.3305C10.1146 14.4997 9.90402 14.5667 9.72784 14.6915C9.55167 14.8164 9.41864 14.9928 9.34714 15.1966C9.27565 15.4003 9.26923 15.6212 9.32877 15.8288C9.38831 16.0363 9.51087 16.2202 9.67949 16.355L14.891 20.5217C14.9978 20.6072 15.1204 20.6708 15.2518 20.7089C15.3833 20.747 15.5209 20.7589 15.6569 20.7438C15.7929 20.7287 15.9246 20.687 16.0445 20.621C16.1643 20.555 16.27 20.466 16.3555 20.3592C16.441 20.2524 16.5046 20.1297 16.5427 19.9983C16.5809 19.8669 16.5927 19.7293 16.5776 19.5933C16.5625 19.4573 16.5208 19.3256 16.4548 19.2057C16.3888 19.0858 16.2999 18.9801 16.193 18.8946L13.3003 16.5832H13.4566C14.1451 16.5832 15.1535 16.3853 16.0191 15.7613C16.7902 15.2092 17.325 14.3869 17.517 13.4582H18.667C18.9433 13.4582 19.2082 13.3484 19.4036 13.1531C19.5989 12.9577 19.7087 12.6928 19.7087 12.4165C19.7087 12.1402 19.5989 11.8753 19.4036 11.6799C19.2082 11.4846 18.9433 11.3748 18.667 11.3748H17.517C17.439 11.0114 17.3103 10.6608 17.1347 10.3332H18.667C18.9433 10.3332 19.2082 10.2234 19.4036 10.0281C19.5989 9.83272 19.7087 9.56777 19.7087 9.2915C19.7087 9.01524 19.5989 8.75028 19.4036 8.55493C19.2082 8.35958 18.9433 8.24984 18.667 8.24984H10.3337Z" fill="url(#paint0_linear_545_4542)"/>
<defs>
<linearGradient id="paint0_linear_545_4542" x1="3.04199" y1="14.4998" x2="25.9587" y2="14.4998" gradientUnits="userSpaceOnUse">
<stop stop-color="#FFB75E"/>
<stop offset="1" stop-color="#ED8F03"/>
</linearGradient>
</defs>
</svg>
