<svg width="100" height="97" viewBox="0 0 100 97" fill="none" xmlns="http://www.w3.org/2000/svg">
<g filter="url(#filter0_i_567_5)">
<rect width="100" height="97" rx="10" fill="#4956B2"/>
</g>
<path d="M28.96 76.0469H30.4912L33.3691 83.7236L36.2402 76.0469H37.7715L33.9707 86H32.7539L28.96 76.0469ZM28.2627 76.0469H29.7188L29.9717 82.6914V86H28.2627V76.0469ZM37.0127 76.0469H38.4756V86H36.7598V82.6914L37.0127 76.0469ZM44.5186 84.5166V80.9893C44.5186 80.7249 44.4707 80.4971 44.375 80.3057C44.2793 80.1143 44.1335 79.9661 43.9375 79.8613C43.7461 79.7565 43.5046 79.7041 43.2129 79.7041C42.944 79.7041 42.7116 79.7497 42.5156 79.8408C42.3197 79.932 42.167 80.055 42.0576 80.21C41.9482 80.3649 41.8936 80.5404 41.8936 80.7363H40.2529C40.2529 80.4447 40.3236 80.1621 40.4648 79.8887C40.6061 79.6152 40.8112 79.3714 41.0801 79.1572C41.349 78.943 41.6702 78.7744 42.0439 78.6514C42.4176 78.5283 42.8369 78.4668 43.3018 78.4668C43.8577 78.4668 44.3499 78.5602 44.7783 78.7471C45.2113 78.9339 45.5508 79.2165 45.7969 79.5947C46.0475 79.9684 46.1729 80.4378 46.1729 81.0029V84.291C46.1729 84.6283 46.1956 84.9313 46.2412 85.2002C46.2913 85.4645 46.362 85.6947 46.4531 85.8906V86H44.7646C44.6872 85.8223 44.6257 85.5967 44.5801 85.3232C44.5391 85.0452 44.5186 84.7764 44.5186 84.5166ZM44.7578 81.502L44.7715 82.5205H43.5889C43.2835 82.5205 43.0146 82.5501 42.7822 82.6094C42.5498 82.6641 42.3561 82.7461 42.2012 82.8555C42.0462 82.9648 41.93 83.097 41.8525 83.252C41.7751 83.4069 41.7363 83.5824 41.7363 83.7783C41.7363 83.9743 41.7819 84.1543 41.873 84.3184C41.9642 84.4779 42.0964 84.6032 42.2695 84.6943C42.4473 84.7855 42.6615 84.8311 42.9121 84.8311C43.2493 84.8311 43.5433 84.7627 43.7939 84.626C44.0492 84.4847 44.2497 84.3138 44.3955 84.1133C44.5413 83.9082 44.6188 83.7145 44.6279 83.5322L45.1611 84.2637C45.1064 84.4505 45.013 84.651 44.8809 84.8652C44.7487 85.0794 44.5755 85.2845 44.3613 85.4805C44.1517 85.6719 43.8988 85.8291 43.6025 85.9521C43.3109 86.0752 42.9736 86.1367 42.5908 86.1367C42.1077 86.1367 41.6771 86.041 41.2988 85.8496C40.9206 85.6536 40.6243 85.3916 40.4102 85.0635C40.196 84.7308 40.0889 84.3548 40.0889 83.9355C40.0889 83.5436 40.1618 83.1973 40.3076 82.8965C40.458 82.5911 40.6768 82.3359 40.9639 82.1309C41.2555 81.9258 41.611 81.7708 42.0303 81.666C42.4495 81.5566 42.9281 81.502 43.4658 81.502H44.7578ZM49.5293 80.1826V86H47.8818V78.6035H49.4336L49.5293 80.1826ZM49.2354 82.0283L48.7021 82.0215C48.7067 81.4974 48.7796 81.0166 48.9209 80.5791C49.0667 80.1416 49.2673 79.7656 49.5225 79.4512C49.7822 79.1367 50.0921 78.8952 50.4521 78.7266C50.8122 78.5534 51.2132 78.4668 51.6553 78.4668C52.0107 78.4668 52.332 78.5169 52.6191 78.6172C52.9108 78.7129 53.1592 78.8701 53.3643 79.0889C53.5739 79.3076 53.7334 79.5924 53.8428 79.9434C53.9521 80.2897 54.0068 80.7158 54.0068 81.2217V86H52.3525V81.2148C52.3525 80.8594 52.3001 80.5791 52.1953 80.374C52.0951 80.1644 51.9469 80.0163 51.751 79.9297C51.5596 79.8385 51.3203 79.793 51.0332 79.793C50.7507 79.793 50.4977 79.8522 50.2744 79.9707C50.0511 80.0892 49.862 80.251 49.707 80.4561C49.5566 80.6611 49.4404 80.8981 49.3584 81.167C49.2764 81.4359 49.2354 81.723 49.2354 82.0283ZM60.1387 84.2568V78.6035H61.793V86H60.2344L60.1387 84.2568ZM60.3711 82.7188L60.9248 82.7051C60.9248 83.2018 60.8701 83.6598 60.7607 84.0791C60.6514 84.4938 60.4827 84.8561 60.2549 85.166C60.027 85.4714 59.7354 85.7106 59.3799 85.8838C59.0244 86.0524 58.5983 86.1367 58.1016 86.1367C57.7415 86.1367 57.4111 86.0843 57.1104 85.9795C56.8096 85.8747 56.5498 85.7129 56.3311 85.4941C56.1169 85.2754 55.9505 84.9906 55.832 84.6396C55.7135 84.2887 55.6543 83.8695 55.6543 83.3818V78.6035H57.3018V83.3955C57.3018 83.6644 57.3337 83.89 57.3975 84.0723C57.4613 84.25 57.5479 84.3936 57.6572 84.5029C57.7666 84.6123 57.8942 84.6898 58.04 84.7354C58.1859 84.7809 58.3408 84.8037 58.5049 84.8037C58.9743 84.8037 59.3434 84.7126 59.6123 84.5303C59.8857 84.3434 60.0794 84.0928 60.1934 83.7783C60.3118 83.4639 60.3711 83.1107 60.3711 82.7188ZM67.6514 84.5166V80.9893C67.6514 80.7249 67.6035 80.4971 67.5078 80.3057C67.4121 80.1143 67.2663 79.9661 67.0703 79.8613C66.8789 79.7565 66.6374 79.7041 66.3457 79.7041C66.0768 79.7041 65.8444 79.7497 65.6484 79.8408C65.4525 79.932 65.2998 80.055 65.1904 80.21C65.0811 80.3649 65.0264 80.5404 65.0264 80.7363H63.3857C63.3857 80.4447 63.4564 80.1621 63.5977 79.8887C63.7389 79.6152 63.944 79.3714 64.2129 79.1572C64.4818 78.943 64.8031 78.7744 65.1768 78.6514C65.5505 78.5283 65.9697 78.4668 66.4346 78.4668C66.9906 78.4668 67.4827 78.5602 67.9111 78.7471C68.3441 78.9339 68.6836 79.2165 68.9297 79.5947C69.1803 79.9684 69.3057 80.4378 69.3057 81.0029V84.291C69.3057 84.6283 69.3285 84.9313 69.374 85.2002C69.4242 85.4645 69.4948 85.6947 69.5859 85.8906V86H67.8975C67.82 85.8223 67.7585 85.5967 67.7129 85.3232C67.6719 85.0452 67.6514 84.7764 67.6514 84.5166ZM67.8906 81.502L67.9043 82.5205H66.7217C66.4163 82.5205 66.1475 82.5501 65.915 82.6094C65.6826 82.6641 65.4889 82.7461 65.334 82.8555C65.179 82.9648 65.0628 83.097 64.9854 83.252C64.9079 83.4069 64.8691 83.5824 64.8691 83.7783C64.8691 83.9743 64.9147 84.1543 65.0059 84.3184C65.097 84.4779 65.2292 84.6032 65.4023 84.6943C65.5801 84.7855 65.7943 84.8311 66.0449 84.8311C66.3822 84.8311 66.6761 84.7627 66.9268 84.626C67.182 84.4847 67.3825 84.3138 67.5283 84.1133C67.6742 83.9082 67.7516 83.7145 67.7607 83.5322L68.2939 84.2637C68.2393 84.4505 68.1458 84.651 68.0137 84.8652C67.8815 85.0794 67.7083 85.2845 67.4941 85.4805C67.2845 85.6719 67.0316 85.8291 66.7354 85.9521C66.4437 86.0752 66.1064 86.1367 65.7236 86.1367C65.2406 86.1367 64.8099 86.041 64.4316 85.8496C64.0534 85.6536 63.7572 85.3916 63.543 85.0635C63.3288 84.7308 63.2217 84.3548 63.2217 83.9355C63.2217 83.5436 63.2946 83.1973 63.4404 82.8965C63.5908 82.5911 63.8096 82.3359 64.0967 82.1309C64.3883 81.9258 64.7438 81.7708 65.1631 81.666C65.5824 81.5566 66.0609 81.502 66.5986 81.502H67.8906ZM72.792 75.5V86H71.1377V75.5H72.792Z" fill="white"/>
<path d="M60.1442 64.9999H41.9503C41.2837 64.9999 40.7432 64.4593 40.7432 63.7927V58.5397C40.7432 57.8731 41.2837 57.3325 41.9503 57.3325H51.6068C52.2734 57.3325 52.8139 57.8731 52.8139 58.5397C52.8139 59.2063 52.2734 59.7468 51.6068 59.7468H43.1576V62.5855H58.937V59.7468H56.9513C56.2847 59.7468 55.7442 59.2063 55.7442 58.5397C55.7442 57.8731 56.2847 57.3325 56.9513 57.3325H60.1442C60.8108 57.3325 61.3513 57.8731 61.3513 58.5397V63.7927C61.3513 64.4594 60.8108 64.9999 60.1442 64.9999Z" fill="white"/>
<path d="M52.399 41.9313V40.7648C52.399 39.5985 51.4477 38.6053 50.2249 38.5638C48.9412 38.5204 47.8863 39.4994 47.8863 40.7132V41.972L47.862 30.7021C47.862 29.5143 46.8518 28.5513 45.6057 28.5513H45.519C44.2728 28.5513 43.2627 29.5142 43.2627 30.7021V38.7956V40.6566V46.281L41.0672 40.9353C40.681 39.7821 39.3864 39.1462 38.1765 39.5143C36.9667 39.8831 36.2995 41.1166 36.6858 42.2702L41.5064 52.1973C42.1017 53.4235 43.3899 54.2084 44.8072 54.2091L57.7822 54.2148C59.7927 54.2156 61.423 52.6625 61.4231 50.7461L61.4244 42.2222C61.4244 41.0344 60.4142 40.0714 59.1681 40.0714C57.9219 40.0714 56.9118 41.0343 56.9118 42.2222V41.711C56.9118 40.5231 55.9016 39.5601 54.6555 39.5601C53.4093 39.5601 52.3992 40.5231 52.3992 41.711" fill="#4956B2"/>
<path d="M59.1684 38.8646C58.4444 38.8646 57.7713 39.0812 57.2149 39.451C56.581 38.7769 55.6684 38.3533 54.6557 38.3533C54.0427 38.3533 53.4662 38.5085 52.9662 38.7805C52.3636 37.9473 51.3877 37.3955 50.2662 37.3574C50.1663 37.3539 50.0667 37.3549 49.9676 37.3599C52.6066 35.8029 54.2837 32.952 54.2837 29.7923C54.2837 24.9442 50.3396 21 45.4916 21C40.6434 21 36.6992 24.9442 36.6992 29.7924C36.6992 33.3741 38.818 36.5215 42.0555 37.8865V40.1669C41.3251 38.6478 39.5153 37.8455 37.8247 38.3599C36.9092 38.639 36.1686 39.2511 35.7396 40.0833C35.3256 40.8865 35.255 41.7993 35.5412 42.6537C35.5576 42.7029 35.5773 42.7512 35.6 42.7978L40.4207 52.7249C41.2144 54.3591 42.9361 55.4156 44.8072 55.4165L57.7821 55.4222C57.7828 55.4222 57.7836 55.4222 57.7842 55.4222C59.0675 55.4222 60.2767 54.9433 61.1895 54.0736C62.1187 53.1884 62.6306 52.0068 62.6306 50.7464L62.6319 42.2224C62.632 40.371 61.0782 38.8646 59.1684 38.8646ZM39.1135 29.7924C39.1135 26.2755 41.9747 23.4144 45.4915 23.4144C49.0082 23.4144 51.8693 26.2755 51.8693 29.7924C51.8693 31.9459 50.7961 33.9023 49.0789 35.0677L49.0738 32.751C49.7636 31.9209 50.1392 30.8891 50.1392 29.7924C50.1392 27.2296 48.0542 25.1448 45.4916 25.1448C42.9289 25.1448 40.844 27.2297 40.844 29.7924C40.844 30.9572 41.2805 32.0676 42.0556 32.9187V35.171C40.2477 34.0237 39.1135 32.0242 39.1135 29.7924ZM60.2164 50.7461C60.2163 51.3395 59.9705 51.9005 59.5243 52.3256C59.0625 52.7656 58.4446 53.0078 57.7843 53.0078C57.784 53.0078 57.7836 53.0078 57.7831 53.0078L44.8082 53.0021C43.855 53.0018 42.9854 52.4789 42.5926 51.6702L37.8129 41.8275C37.7416 41.5579 37.8113 41.3338 37.8858 41.1894C38.0137 40.9415 38.242 40.7568 38.5282 40.6694C39.1069 40.4937 39.7458 40.7905 39.9227 41.319C39.9312 41.3443 39.9404 41.3694 39.9507 41.3942L42.1462 46.7399C42.3651 47.2733 42.9307 47.5775 43.4966 47.4657C44.0623 47.354 44.4699 46.858 44.4699 46.2813V37.0458C44.4699 37.0416 44.4699 37.0375 44.4699 37.0333V30.7023C44.4699 30.1819 44.9406 29.7587 45.5191 29.7587H45.6059C46.1844 29.7587 46.655 30.182 46.655 30.705L46.6687 37.0119C46.6687 37.0131 46.6687 37.0144 46.6687 37.0157L46.6794 41.9749C46.6809 42.6408 47.2208 43.1796 47.8866 43.1796C47.8869 43.1796 47.8875 43.1796 47.8878 43.1796C48.5541 43.1789 49.0937 42.6387 49.0937 41.9724V40.7136C49.0937 40.475 49.1937 40.2469 49.3753 40.0714C49.5868 39.8671 49.8754 39.76 50.1842 39.7707C50.7399 39.7895 51.1921 40.2357 51.1921 40.7652V41.9318C51.1921 42.5984 51.7326 43.139 52.3992 43.139C53.0658 43.139 53.6064 42.5984 53.6064 41.9318V41.7116C53.6064 41.1912 54.0771 40.7679 54.6555 40.7679C55.234 40.7679 55.7046 41.1913 55.7046 41.7116V42.2228C55.7046 42.8894 56.2452 43.4299 56.9118 43.4299C57.5784 43.4299 58.119 42.8894 58.119 42.2228C58.119 41.7025 58.5896 41.2793 59.1681 41.2793C59.7465 41.2793 60.2172 41.7026 60.2172 42.2225L60.2164 50.7461Z" fill="white"/>
<defs>
<filter id="filter0_i_567_5" x="0" y="0" width="100" height="98" filterUnits="userSpaceOnUse" color-interpolation-filters="sRGB">
<feFlood flood-opacity="0" result="BackgroundImageFix"/>
<feBlend mode="normal" in="SourceGraphic" in2="BackgroundImageFix" result="shape"/>
<feColorMatrix in="SourceAlpha" type="matrix" values="0 0 0 0 0 0 0 0 0 0 0 0 0 0 0 0 0 0 127 0" result="hardAlpha"/>
<feOffset dy="1"/>
<feGaussianBlur stdDeviation="4"/>
<feComposite in2="hardAlpha" operator="arithmetic" k2="-1" k3="1"/>
<feColorMatrix type="matrix" values="0 0 0 0 0 0 0 0 0 0 0 0 0 0 0 0 0 0 0.15 0"/>
<feBlend mode="normal" in2="shape" result="effect1_innerShadow_567_5"/>
</filter>
</defs>
</svg>
