<svg width="100" height="97" viewBox="0 0 100 97" fill="none" xmlns="http://www.w3.org/2000/svg">
<g filter="url(#filter0_i_567_7)">
<rect width="100" height="97" rx="10" fill="#4956B2"/>
</g>
<path d="M23.0264 77.373L20.0527 86H18.2549L22.001 76.0469H23.1494L23.0264 77.373ZM25.5146 86L22.5342 77.373L22.4043 76.0469H23.5596L27.3193 86H25.5146ZM25.3711 82.3086V83.6689H19.957V82.3086H25.3711ZM32.6377 84.2568V78.6035H34.292V86H32.7334L32.6377 84.2568ZM32.8701 82.7188L33.4238 82.7051C33.4238 83.2018 33.3691 83.6598 33.2598 84.0791C33.1504 84.4938 32.9818 84.8561 32.7539 85.166C32.526 85.4714 32.2344 85.7106 31.8789 85.8838C31.5234 86.0524 31.0973 86.1367 30.6006 86.1367C30.2406 86.1367 29.9102 86.0843 29.6094 85.9795C29.3086 85.8747 29.0488 85.7129 28.8301 85.4941C28.6159 85.2754 28.4495 84.9906 28.3311 84.6396C28.2126 84.2887 28.1533 83.8695 28.1533 83.3818V78.6035H29.8008V83.3955C29.8008 83.6644 29.8327 83.89 29.8965 84.0723C29.9603 84.25 30.0469 84.3936 30.1562 84.5029C30.2656 84.6123 30.3932 84.6898 30.5391 84.7354C30.6849 84.7809 30.8398 84.8037 31.0039 84.8037C31.4733 84.8037 31.8424 84.7126 32.1113 84.5303C32.3848 84.3434 32.5785 84.0928 32.6924 83.7783C32.8109 83.4639 32.8701 83.1107 32.8701 82.7188ZM39.3711 78.6035V79.8066H35.2012V78.6035H39.3711ZM36.4043 76.792H38.0518V83.9561C38.0518 84.1839 38.0837 84.3594 38.1475 84.4824C38.2158 84.6009 38.3092 84.6807 38.4277 84.7217C38.5462 84.7627 38.6852 84.7832 38.8447 84.7832C38.9587 84.7832 39.068 84.7764 39.1729 84.7627C39.2777 84.749 39.362 84.7354 39.4258 84.7217L39.4326 85.9795C39.2959 86.0205 39.1364 86.057 38.9541 86.0889C38.7764 86.1208 38.5713 86.1367 38.3389 86.1367C37.9606 86.1367 37.6257 86.0706 37.334 85.9385C37.0423 85.8018 36.8145 85.5807 36.6504 85.2754C36.4863 84.9701 36.4043 84.5645 36.4043 84.0586V76.792ZM40.1641 82.3838V82.2266C40.1641 81.6934 40.2415 81.1989 40.3965 80.7432C40.5514 80.2829 40.7747 79.8841 41.0664 79.5469C41.3626 79.2051 41.7227 78.9408 42.1465 78.7539C42.5749 78.5625 43.0579 78.4668 43.5957 78.4668C44.138 78.4668 44.6211 78.5625 45.0449 78.7539C45.4733 78.9408 45.8356 79.2051 46.1318 79.5469C46.4281 79.8841 46.6536 80.2829 46.8086 80.7432C46.9635 81.1989 47.041 81.6934 47.041 82.2266V82.3838C47.041 82.917 46.9635 83.4115 46.8086 83.8672C46.6536 84.3229 46.4281 84.7217 46.1318 85.0635C45.8356 85.4007 45.4756 85.665 45.0518 85.8564C44.6279 86.0433 44.1471 86.1367 43.6094 86.1367C43.0671 86.1367 42.5817 86.0433 42.1533 85.8564C41.7295 85.665 41.3695 85.4007 41.0732 85.0635C40.777 84.7217 40.5514 84.3229 40.3965 83.8672C40.2415 83.4115 40.1641 82.917 40.1641 82.3838ZM41.8115 82.2266V82.3838C41.8115 82.7165 41.8457 83.0309 41.9141 83.3271C41.9824 83.6234 42.0895 83.8831 42.2354 84.1064C42.3812 84.3298 42.568 84.5052 42.7959 84.6328C43.0238 84.7604 43.2949 84.8242 43.6094 84.8242C43.9147 84.8242 44.179 84.7604 44.4023 84.6328C44.6302 84.5052 44.8171 84.3298 44.9629 84.1064C45.1087 83.8831 45.2158 83.6234 45.2842 83.3271C45.3571 83.0309 45.3936 82.7165 45.3936 82.3838V82.2266C45.3936 81.8984 45.3571 81.5885 45.2842 81.2969C45.2158 81.0007 45.1064 80.7386 44.9561 80.5107C44.8102 80.2829 44.6234 80.1051 44.3955 79.9775C44.1722 79.8454 43.9056 79.7793 43.5957 79.7793C43.2858 79.7793 43.0169 79.8454 42.7891 79.9775C42.5658 80.1051 42.3812 80.2829 42.2354 80.5107C42.0895 80.7386 41.9824 81.0007 41.9141 81.2969C41.8457 81.5885 41.8115 81.8984 41.8115 82.2266ZM50.0693 80.1074V86H48.4219V78.6035H49.9736L50.0693 80.1074ZM49.8027 82.0283L49.2422 82.0215C49.2422 81.5111 49.306 81.0394 49.4336 80.6064C49.5612 80.1735 49.748 79.7975 49.9941 79.4785C50.2402 79.1549 50.5456 78.9066 50.9102 78.7334C51.2793 78.5557 51.7054 78.4668 52.1885 78.4668C52.5257 78.4668 52.8333 78.5169 53.1113 78.6172C53.3939 78.7129 53.6377 78.8656 53.8428 79.0752C54.0524 79.2848 54.2119 79.5537 54.3213 79.8818C54.4352 80.21 54.4922 80.6064 54.4922 81.0713V86H52.8447V81.2148C52.8447 80.8548 52.79 80.5723 52.6807 80.3672C52.5758 80.1621 52.4232 80.0163 52.2227 79.9297C52.0267 79.8385 51.792 79.793 51.5186 79.793C51.2087 79.793 50.9443 79.8522 50.7256 79.9707C50.5114 80.0892 50.3359 80.251 50.1992 80.4561C50.0625 80.6611 49.9622 80.8981 49.8984 81.167C49.8346 81.4359 49.8027 81.723 49.8027 82.0283ZM54.3896 81.5908L53.6172 81.7617C53.6172 81.3151 53.6787 80.8936 53.8018 80.4971C53.9294 80.096 54.1139 79.7451 54.3555 79.4443C54.6016 79.139 54.9046 78.8997 55.2646 78.7266C55.6247 78.5534 56.0371 78.4668 56.502 78.4668C56.8802 78.4668 57.2174 78.5192 57.5137 78.624C57.8145 78.7243 58.0697 78.8838 58.2793 79.1025C58.4889 79.3213 58.6484 79.6061 58.7578 79.957C58.8672 80.3034 58.9219 80.7227 58.9219 81.2148V86H57.2676V81.208C57.2676 80.8343 57.2129 80.5449 57.1035 80.3398C56.9987 80.1348 56.8483 79.9935 56.6523 79.916C56.4564 79.834 56.2217 79.793 55.9482 79.793C55.693 79.793 55.4674 79.8408 55.2715 79.9365C55.0801 80.0277 54.9183 80.1576 54.7861 80.3262C54.654 80.4902 54.5537 80.6794 54.4854 80.8936C54.4215 81.1077 54.3896 81.3402 54.3896 81.5908ZM64.7871 84.5166V80.9893C64.7871 80.7249 64.7393 80.4971 64.6436 80.3057C64.5479 80.1143 64.402 79.9661 64.2061 79.8613C64.0146 79.7565 63.7731 79.7041 63.4814 79.7041C63.2126 79.7041 62.9801 79.7497 62.7842 79.8408C62.5882 79.932 62.4355 80.055 62.3262 80.21C62.2168 80.3649 62.1621 80.5404 62.1621 80.7363H60.5215C60.5215 80.4447 60.5921 80.1621 60.7334 79.8887C60.8747 79.6152 61.0798 79.3714 61.3486 79.1572C61.6175 78.943 61.9388 78.7744 62.3125 78.6514C62.6862 78.5283 63.1055 78.4668 63.5703 78.4668C64.1263 78.4668 64.6185 78.5602 65.0469 78.7471C65.4798 78.9339 65.8193 79.2165 66.0654 79.5947C66.3161 79.9684 66.4414 80.4378 66.4414 81.0029V84.291C66.4414 84.6283 66.4642 84.9313 66.5098 85.2002C66.5599 85.4645 66.6305 85.6947 66.7217 85.8906V86H65.0332C64.9557 85.8223 64.8942 85.5967 64.8486 85.3232C64.8076 85.0452 64.7871 84.7764 64.7871 84.5166ZM65.0264 81.502L65.04 82.5205H63.8574C63.5521 82.5205 63.2832 82.5501 63.0508 82.6094C62.8184 82.6641 62.6247 82.7461 62.4697 82.8555C62.3148 82.9648 62.1986 83.097 62.1211 83.252C62.0436 83.4069 62.0049 83.5824 62.0049 83.7783C62.0049 83.9743 62.0505 84.1543 62.1416 84.3184C62.2327 84.4779 62.3649 84.6032 62.5381 84.6943C62.7158 84.7855 62.93 84.8311 63.1807 84.8311C63.5179 84.8311 63.8118 84.7627 64.0625 84.626C64.3177 84.4847 64.5182 84.3138 64.6641 84.1133C64.8099 83.9082 64.8874 83.7145 64.8965 83.5322L65.4297 84.2637C65.375 84.4505 65.2816 84.651 65.1494 84.8652C65.0173 85.0794 64.8441 85.2845 64.6299 85.4805C64.4202 85.6719 64.1673 85.8291 63.8711 85.9521C63.5794 86.0752 63.2422 86.1367 62.8594 86.1367C62.3763 86.1367 61.9456 86.041 61.5674 85.8496C61.1891 85.6536 60.8929 85.3916 60.6787 85.0635C60.4645 84.7308 60.3574 84.3548 60.3574 83.9355C60.3574 83.5436 60.4303 83.1973 60.5762 82.8965C60.7266 82.5911 60.9453 82.3359 61.2324 82.1309C61.5241 81.9258 61.8796 81.7708 62.2988 81.666C62.7181 81.5566 63.1966 81.502 63.7344 81.502H65.0264ZM71.5547 78.6035V79.8066H67.3848V78.6035H71.5547ZM68.5879 76.792H70.2354V83.9561C70.2354 84.1839 70.2673 84.3594 70.3311 84.4824C70.3994 84.6009 70.4928 84.6807 70.6113 84.7217C70.7298 84.7627 70.8688 84.7832 71.0283 84.7832C71.1423 84.7832 71.2516 84.7764 71.3564 84.7627C71.4613 84.749 71.5456 84.7354 71.6094 84.7217L71.6162 85.9795C71.4795 86.0205 71.32 86.057 71.1377 86.0889C70.96 86.1208 70.7549 86.1367 70.5225 86.1367C70.1442 86.1367 69.8092 86.0706 69.5176 85.9385C69.2259 85.8018 68.998 85.5807 68.834 85.2754C68.6699 84.9701 68.5879 84.5645 68.5879 84.0586V76.792ZM74.5898 78.6035V86H72.9355V78.6035H74.5898ZM72.8262 76.6621C72.8262 76.4115 72.9082 76.2041 73.0723 76.04C73.2409 75.8714 73.4733 75.7871 73.7695 75.7871C74.0612 75.7871 74.2913 75.8714 74.46 76.04C74.6286 76.2041 74.7129 76.4115 74.7129 76.6621C74.7129 76.9082 74.6286 77.1133 74.46 77.2773C74.2913 77.4414 74.0612 77.5234 73.7695 77.5234C73.4733 77.5234 73.2409 77.4414 73.0723 77.2773C72.9082 77.1133 72.8262 76.9082 72.8262 76.6621ZM79.416 84.8242C79.6849 84.8242 79.9264 84.7718 80.1406 84.667C80.3594 84.5576 80.5348 84.4072 80.667 84.2158C80.8037 84.0244 80.8789 83.8034 80.8926 83.5527H82.4443C82.4352 84.0312 82.2939 84.4665 82.0205 84.8584C81.7471 85.2503 81.3848 85.5625 80.9336 85.7949C80.4824 86.0228 79.9834 86.1367 79.4365 86.1367C78.8714 86.1367 78.3792 86.041 77.96 85.8496C77.5407 85.6536 77.1921 85.3848 76.9141 85.043C76.6361 84.7012 76.4264 84.307 76.2852 83.8604C76.1484 83.4137 76.0801 82.9352 76.0801 82.4248V82.1855C76.0801 81.6751 76.1484 81.1966 76.2852 80.75C76.4264 80.2988 76.6361 79.9023 76.9141 79.5605C77.1921 79.2188 77.5407 78.9521 77.96 78.7607C78.3792 78.5648 78.8691 78.4668 79.4297 78.4668C80.0221 78.4668 80.5417 78.5853 80.9883 78.8223C81.4349 79.0547 81.7858 79.3805 82.041 79.7998C82.3008 80.2145 82.4352 80.6976 82.4443 81.249H80.8926C80.8789 80.9756 80.8105 80.7295 80.6875 80.5107C80.569 80.2874 80.4004 80.1097 80.1816 79.9775C79.9674 79.8454 79.71 79.7793 79.4092 79.7793C79.0765 79.7793 78.8008 79.8477 78.582 79.9844C78.3633 80.1165 78.1924 80.2988 78.0693 80.5312C77.9463 80.7591 77.8574 81.0166 77.8027 81.3037C77.7526 81.5863 77.7275 81.8802 77.7275 82.1855V82.4248C77.7275 82.7301 77.7526 83.0264 77.8027 83.3135C77.8529 83.6006 77.9395 83.8581 78.0625 84.0859C78.1901 84.3092 78.3633 84.4893 78.582 84.626C78.8008 84.7581 79.0788 84.8242 79.416 84.8242Z" fill="white"/>
<path d="M27.9577 48.9254C29.089 53.3477 31.6452 57.2744 35.2313 60.0986C38.8174 62.9229 43.2338 64.4875 47.7981 64.5507C52.3624 64.614 56.8205 63.1723 60.4835 60.4484C64.1465 57.7246 66.8104 53.8703 68.0638 49.481L66.1061 48.9219C64.9755 52.8811 62.5726 56.3578 59.2686 58.8147C55.9646 61.2716 51.9433 62.572 47.8263 62.515C43.7093 62.4579 39.7257 61.0466 36.491 58.4991C33.2563 55.9516 30.9506 52.4097 29.9301 48.4208L27.9577 48.9254Z" fill="white"/>
<path d="M68.564 45.6913L70.3007 50.4001L64.3493 48.4163L68.564 45.6913Z" fill="white"/>
<path d="M69.0423 39.3969C67.911 34.9746 65.3548 31.0479 61.7687 28.2236C58.1826 25.3994 53.7662 23.8348 49.2019 23.7715C44.6376 23.7083 40.1795 25.15 36.5165 27.8738C32.8535 30.5977 30.1896 34.452 28.9362 38.8413L30.9824 39.4256C32.1073 35.4858 34.4985 32.0262 37.7863 29.5814C41.0741 27.1365 45.0756 25.8425 49.1724 25.8993C53.2692 25.956 57.2333 27.3604 60.4521 29.8954C63.671 32.4304 65.9654 35.9549 66.9808 39.9243L69.0423 39.3969Z" fill="white"/>
<path d="M28.436 42.631L26.6993 37.9221L32.6507 39.906L28.436 42.631Z" fill="white"/>
<rect x="36.542" y="32.2339" width="24.6239" height="23.8544" rx="3.07798" fill="#4956B2"/>
<path d="M49.1224 40.097L45.9979 49.6206H43.4809L47.7495 38.1323H49.3513L49.1224 40.097ZM51.7184 49.6206L48.5859 40.097L48.3334 38.1323H49.9509L54.2433 49.6206H51.7184ZM51.5763 45.344V47.1983H45.5087V45.344H51.5763Z" fill="white"/>
<defs>
<filter id="filter0_i_567_7" x="0" y="0" width="100" height="98" filterUnits="userSpaceOnUse" color-interpolation-filters="sRGB">
<feFlood flood-opacity="0" result="BackgroundImageFix"/>
<feBlend mode="normal" in="SourceGraphic" in2="BackgroundImageFix" result="shape"/>
<feColorMatrix in="SourceAlpha" type="matrix" values="0 0 0 0 0 0 0 0 0 0 0 0 0 0 0 0 0 0 127 0" result="hardAlpha"/>
<feOffset dy="1"/>
<feGaussianBlur stdDeviation="4"/>
<feComposite in2="hardAlpha" operator="arithmetic" k2="-1" k3="1"/>
<feColorMatrix type="matrix" values="0 0 0 0 0 0 0 0 0 0 0 0 0 0 0 0 0 0 0.15 0"/>
<feBlend mode="normal" in2="shape" result="effect1_innerShadow_567_7"/>
</filter>
</defs>
</svg>
