<svg width="32" height="22" viewBox="0 0 32 22" fill="none" xmlns="http://www.w3.org/2000/svg">
<path d="M14.7274 21.1814C14.687 21.3438 14.5934 21.488 14.4616 21.591C14.3298 21.6941 14.1673 21.7501 13.9999 21.7502C13.9384 21.75 13.8771 21.7425 13.8174 21.7277L9.81743 20.7277C9.73427 20.7064 9.65526 20.6713 9.58368 20.6239L6.58368 18.6239C6.50161 18.5693 6.4311 18.499 6.37619 18.417C6.32128 18.3351 6.28304 18.2432 6.26366 18.1465C6.22451 17.9513 6.26454 17.7484 6.37493 17.5827C6.48533 17.4169 6.65705 17.3018 6.85232 17.2626C6.94901 17.2433 7.04857 17.2431 7.14532 17.2622C7.24207 17.2813 7.33411 17.3193 7.41618 17.3739L10.3074 19.3014L14.1824 20.2702C14.2781 20.2941 14.3681 20.3367 14.4473 20.3955C14.5265 20.4543 14.5933 20.5281 14.6439 20.6127C14.6946 20.6974 14.728 20.7912 14.7423 20.8888C14.7567 20.9863 14.7516 21.0858 14.7274 21.1814ZM31.3187 9.10642C31.2469 9.32445 31.1326 9.52608 30.9824 9.69966C30.8323 9.87324 30.6491 10.0153 30.4437 10.1177L27.4437 11.6177L20.5299 18.5314C20.3892 18.6716 20.1986 18.7503 19.9999 18.7502C19.9384 18.7501 19.8771 18.7425 19.8174 18.7277L11.8174 16.7277C11.7275 16.7043 11.6428 16.6645 11.5674 16.6102L4.61243 11.6452L1.55868 10.1177C1.14367 9.91008 0.828099 9.54616 0.681359 9.10594C0.534618 8.66572 0.568727 8.18524 0.776183 7.77017L3.88243 1.55892C4.09002 1.14391 4.45394 0.828333 4.89416 0.681592C5.33438 0.534852 5.81486 0.568961 6.22993 0.776417L9.07493 2.19892L15.7937 0.278917C15.9285 0.240361 16.0714 0.240361 16.2062 0.278917L22.9249 2.19892L25.7699 0.776417C26.185 0.568961 26.6655 0.534852 27.1057 0.681592C27.5459 0.828333 27.9098 1.14391 28.1174 1.55892L31.2237 7.77017C31.327 7.9756 31.3885 8.19944 31.4048 8.42879C31.4211 8.65814 31.3919 8.88844 31.3187 9.10642ZM2.22993 8.77642L4.66493 10.0002L7.99993 3.33517L5.55868 2.11767C5.49934 2.08819 5.43071 2.08349 5.3679 2.10458C5.30508 2.12568 5.25321 2.17085 5.22368 2.23017L2.11743 8.44142C2.08837 8.50062 2.08387 8.56891 2.10493 8.63142C2.1147 8.66287 2.13084 8.69197 2.15235 8.71692C2.17385 8.74187 2.20026 8.76212 2.22993 8.77642ZM23.8749 13.0614L20.0337 9.98517C17.6587 12.0327 14.5862 12.3352 12.0587 10.7202C11.8376 10.5795 11.6508 10.3911 11.5123 10.1686C11.3738 9.94616 11.2869 9.69545 11.2583 9.43496C11.2296 9.17448 11.2598 8.91088 11.3466 8.66363C11.4334 8.41637 11.5747 8.19178 11.7599 8.00642L17.4749 2.46142C17.5581 2.38124 17.6586 2.32135 17.7687 2.28642L15.9999 1.78017L9.52368 3.62517L5.95743 10.7627L12.3199 15.3064L19.7699 17.1689L23.8749 13.0614ZM26.0849 10.8514L22.5362 3.75017H18.3037L12.8149 9.07517C12.7906 9.1007 12.7722 9.13134 12.7612 9.16485C12.7502 9.19836 12.7468 9.23391 12.7512 9.26892C12.7551 9.30709 12.7677 9.34386 12.7881 9.37637C12.8084 9.40889 12.836 9.43628 12.8687 9.45642C14.5299 10.5177 17.1362 10.8152 19.4674 8.46642C19.5979 8.33546 19.7721 8.25729 19.9567 8.2469C20.1412 8.23652 20.3231 8.29466 20.4674 8.41017L24.9449 12.0002L26.0849 10.8514ZM29.8799 8.44142L26.7762 2.23017C26.7467 2.17085 26.6948 2.12568 26.632 2.10458C26.5692 2.08349 26.5005 2.08819 26.4412 2.11767L24.0062 3.33517L27.3349 10.0002L29.7699 8.78267C29.7996 8.76837 29.826 8.74812 29.8475 8.72317C29.869 8.69823 29.8852 8.66912 29.8949 8.63767C29.9062 8.60581 29.9109 8.57199 29.9088 8.53826C29.9066 8.50453 29.8977 8.47158 29.8824 8.44142H29.8799Z" fill="#4956B2"/>
</svg>
