<svg 
          width="23.749225616455078" 
          height="27" fill="none" 
          xmlns="http://www.w3.org/2000/svg">
          <defs>
            <linearGradient id="e11753">
        <stop offset="0%" style="stop-color:rgb(63.000000044703484,72.00000330805779,191.00000381469727);stop-opacity:1" />
        <stop offset="100%" style="stop-color:rgb(65.0000037252903,114.0000008046627,224.000001847744);stop-opacity:1" />
        </linearGradient>
          </defs>
          <path d="M 23.47522735595703 18.987499237060547 C 22.737727344036102 17.712499260902405 21.85022735595703 15.287499904632568 21.85022735595703 11 L 21.85022735595703 10.112500190734863 C 21.85022735595703 4.575000286102295 17.41272783279419 0.03750000149011612 11.950227737426758 0 L 11.875226974487305 0 C 10.563649535179138 0.0016404965426772833 9.265238285064697 0.261599600315094 8.054126739501953 0.7650346755981445 C 6.843015193939209 1.268469750881195 5.74292117357254 2.0055217146873474 4.816656589508057 2.934107780456543 C 3.890392005443573 3.8626938462257385 3.1560959219932556 4.964628219604492 2.655694007873535 6.176996231079102 C 2.1552920937538147 7.389364242553711 1.8985840419773012 8.688422560691833 1.9002265930175781 10 L 1.9002265930175781 11 C 1.9002265930175781 15.287499904632568 1.0127266347408295 17.712499260902405 0.2752266228199005 18.987499237060547 C 0.0968652069568634 19.291334331035614 0.0019301285756228026 19.636894524097443 0.0000291217838821467 19.989208221435547 C -0.0018718850078585092 20.34152191877365 0.08932872116565704 20.688085675239563 0.26440098881721497 20.99382781982422 C 0.4394732564687729 21.299569964408875 0.6922039091587067 21.55364079773426 0.997016966342926 21.73032569885254 C 1.3018300235271454 21.907010599970818 1.6479076743125916 22.00003989511606 2.0002264976501465 22 L 6.8752264976501465 22 C 6.875226497650148 23.326082468032837 7.402011156082153 24.597851991653442 8.339693069458008 25.535533905029297 C 9.277374982833862 26.47321581840515 10.549144506454468 27 11.875226974487305 27 C 13.201309442520142 27 14.473078966140747 26.47321581840515 15.410760879516602 25.535533905029297 C 16.348442792892456 24.597851991653442 16.875226974487305 23.326082468032837 16.875226974487305 22 L 21.750226974487305 22 C 22.10247603058815 22.002243467373773 22.44899344444275 21.91082838177681 22.754295349121094 21.73511505126953 C 23.05959725379944 21.559401720762253 23.312712982296944 21.305703788995743 23.48772621154785 21 C 23.66124625504017 20.692563325166702 23.751380127854645 20.34510439634323 23.749187469482422 19.99208641052246 C 23.7469948111102 19.63906842470169 23.652552947402 19.292756736278534 23.47522735595703 18.987499237060547 L 23.47522735595703 18.987499237060547 Z M 11.875226974487305 25 C 11.080590784549713 24.99670953885652 10.319439113140106 24.67958277463913 9.75754165649414 24.117685317993164 C 9.195644199848175 23.5557878613472 8.878517435630783 22.79463618993759 8.875226974487305 22 L 14.875226974487305 22 C 14.871936513343826 22.79463618993759 14.554809749126434 23.5557878613472 13.992912292480469 24.117685317993164 C 13.431014835834503 24.67958277463913 12.669863164424896 24.99670953885652 11.875226974487305 25 Z" fill="url(#e11753)"/>
        </svg>