<svg width="26" height="23" viewBox="0 0 26 23" fill="none" xmlns="http://www.w3.org/2000/svg">
<path d="M13 0.5C9.68601 0.50397 6.50889 1.82221 4.16555 4.16555C1.82221 6.50889 0.50397 9.68601 0.5 13V20C0.499971 20.4622 0.628062 20.9153 0.870045 21.3091C1.11203 21.7028 1.45843 22.0218 1.87077 22.2306C2.28311 22.4394 2.74526 22.5297 3.20586 22.4917C3.66647 22.4536 4.10751 22.2886 4.48 22.015C6.0575 20.875 8.81625 19.5 13 19.5C17.1838 19.5 19.9425 20.8675 21.52 22.015C21.8948 22.2906 22.339 22.4561 22.8028 22.493C23.2665 22.5299 23.7314 22.4366 24.145 22.2237C24.5545 22.0148 24.8981 21.6963 25.1373 21.3037C25.3765 20.9111 25.5021 20.4598 25.5 20V13C25.496 9.68601 24.1778 6.50889 21.8344 4.16555C19.4911 1.82221 16.314 0.50397 13 0.5ZM24.5 13V15.0287C22.6418 13.7618 20.5858 12.8126 18.4163 12.22C18.0485 8.32885 16.5664 4.62632 14.1475 1.55625C16.9835 1.84403 19.612 3.17349 21.5243 5.28741C23.4366 7.40134 24.4969 10.1494 24.5 13ZM17.3875 11.9675C14.4957 11.3442 11.5043 11.3442 8.6125 11.9675C9.205 6.61625 12 2.91375 13 1.75C14 2.915 16.795 6.61625 17.3875 11.9688V11.9675ZM11.8525 1.5575C9.43363 4.62757 7.95149 8.3301 7.58375 12.2212C5.41417 12.8138 3.35822 13.763 1.5 15.03V13C1.50338 10.1497 2.56381 7.40186 4.47612 5.2882C6.38843 3.17454 9.01671 1.84526 11.8525 1.5575ZM23.685 21.3337C23.4372 21.4635 23.1577 21.5206 22.8789 21.4985C22.6 21.4764 22.333 21.3759 22.1087 21.2087C20.4112 19.9725 17.4525 18.5 13 18.5C8.5475 18.5 5.58875 19.9712 3.89125 21.2062C3.66696 21.3734 3.40001 21.4739 3.12115 21.496C2.84228 21.5181 2.56283 21.461 2.315 21.3312C2.06777 21.2084 1.86017 21.0183 1.71602 20.7829C1.57186 20.5474 1.497 20.2761 1.5 20V16.25C4.83869 13.8119 8.86586 12.498 13 12.498C17.1341 12.498 21.1613 13.8119 24.5 16.25V20C24.5035 20.2765 24.4288 20.5483 24.2847 20.7843C24.1405 21.0202 23.9326 21.2107 23.685 21.3337Z" fill="#4956B2"/>
</svg>
