<svg width="44" height="45" viewBox="0 0 44 45" fill="none" xmlns="http://www.w3.org/2000/svg">
<path d="M4.05615 36.5972L6.7793 28.7578H8.10596L4.68457 38H3.73877L4.05615 36.5972ZM1.51074 28.7578L4.2085 36.5972L4.54492 38H3.59912L0.184082 28.7578H1.51074ZM11.7432 38.127C11.265 38.127 10.8312 38.0465 10.4419 37.8857C10.0568 37.7207 9.72461 37.4901 9.44531 37.1938C9.17025 36.8976 8.95866 36.5464 8.81055 36.1401C8.66243 35.7339 8.58838 35.2896 8.58838 34.8071V34.5405C8.58838 33.9819 8.6709 33.4847 8.83594 33.0488C9.00098 32.6087 9.22526 32.2363 9.50879 31.9316C9.79232 31.627 10.1139 31.3963 10.4736 31.2397C10.8333 31.0832 11.2057 31.0049 11.5908 31.0049C12.0817 31.0049 12.5049 31.0895 12.8604 31.2588C13.2201 31.4281 13.5142 31.665 13.7427 31.9697C13.9712 32.2702 14.1405 32.6257 14.2505 33.0361C14.3605 33.4424 14.4155 33.8867 14.4155 34.3691V34.896H9.28662V33.9375H13.2412V33.8486C13.2243 33.5439 13.1608 33.2477 13.0508 32.96C12.945 32.6722 12.7757 32.4352 12.543 32.249C12.3102 32.0628 11.9928 31.9697 11.5908 31.9697C11.3242 31.9697 11.0788 32.0269 10.8545 32.1411C10.6302 32.2511 10.4377 32.4162 10.2769 32.6362C10.116 32.8563 9.99121 33.125 9.90234 33.4424C9.81348 33.7598 9.76904 34.1258 9.76904 34.5405V34.8071C9.76904 35.133 9.81348 35.4398 9.90234 35.7275C9.99544 36.0111 10.1287 36.2607 10.3022 36.4766C10.48 36.6924 10.6937 36.8617 10.9434 36.9844C11.1973 37.1071 11.485 37.1685 11.8066 37.1685C12.2214 37.1685 12.5726 37.0838 12.8604 36.9146C13.1481 36.7453 13.3999 36.5189 13.6157 36.2354L14.3267 36.8003C14.1785 37.0246 13.9902 37.2383 13.7617 37.4414C13.5332 37.6445 13.2518 37.8096 12.9175 37.9365C12.5874 38.0635 12.196 38.127 11.7432 38.127ZM16.9609 32.2109V38H15.7866V31.1318H16.9292L16.9609 32.2109ZM19.1064 31.0938L19.1001 32.1855C19.0028 32.1644 18.9097 32.1517 18.8208 32.1475C18.7362 32.139 18.6388 32.1348 18.5288 32.1348C18.258 32.1348 18.0189 32.1771 17.8115 32.2617C17.6042 32.3464 17.4285 32.4648 17.2847 32.6172C17.1408 32.7695 17.0265 32.9515 16.9419 33.1631C16.8615 33.3704 16.8086 33.599 16.7832 33.8486L16.4531 34.0391C16.4531 33.6243 16.4933 33.235 16.5737 32.8711C16.6584 32.5072 16.7874 32.1855 16.9609 31.9062C17.1344 31.6227 17.3545 31.4027 17.6211 31.2461C17.8919 31.0853 18.2135 31.0049 18.5859 31.0049C18.6706 31.0049 18.7679 31.0155 18.8779 31.0366C18.988 31.0535 19.0641 31.0726 19.1064 31.0938ZM21.4678 31.1318V38H20.2871V31.1318H21.4678ZM20.1982 29.3101C20.1982 29.1196 20.2554 28.9588 20.3696 28.8276C20.4881 28.6965 20.6616 28.6309 20.8901 28.6309C21.1144 28.6309 21.2858 28.6965 21.4043 28.8276C21.527 28.9588 21.5884 29.1196 21.5884 29.3101C21.5884 29.492 21.527 29.6486 21.4043 29.7798C21.2858 29.9067 21.1144 29.9702 20.8901 29.9702C20.6616 29.9702 20.4881 29.9067 20.3696 29.7798C20.2554 29.6486 20.1982 29.492 20.1982 29.3101ZM24.9209 38H23.7466V30.5352C23.7466 30.0146 23.8481 29.5745 24.0513 29.2148C24.2544 28.8551 24.5443 28.5822 24.9209 28.396C25.2975 28.2098 25.744 28.1167 26.2603 28.1167C26.5649 28.1167 26.8633 28.1548 27.1553 28.231C27.4473 28.3029 27.7477 28.3939 28.0566 28.5039L27.8599 29.4941C27.6652 29.418 27.4388 29.346 27.1807 29.2783C26.9268 29.2064 26.6475 29.1704 26.3428 29.1704C25.8392 29.1704 25.4753 29.2847 25.251 29.5132C25.0309 29.7375 24.9209 30.0781 24.9209 30.5352V38ZM26.3237 31.1318V32.0332H22.6611V31.1318H26.3237ZM28.6343 31.1318V38H27.46V31.1318H28.6343ZM33.4141 38.127C32.9359 38.127 32.5021 38.0465 32.1128 37.8857C31.7277 37.7207 31.3955 37.4901 31.1162 37.1938C30.8411 36.8976 30.6296 36.5464 30.4814 36.1401C30.3333 35.7339 30.2593 35.2896 30.2593 34.8071V34.5405C30.2593 33.9819 30.3418 33.4847 30.5068 33.0488C30.6719 32.6087 30.8962 32.2363 31.1797 31.9316C31.4632 31.627 31.7848 31.3963 32.1445 31.2397C32.5042 31.0832 32.8766 31.0049 33.2617 31.0049C33.7526 31.0049 34.1758 31.0895 34.5312 31.2588C34.891 31.4281 35.1851 31.665 35.4136 31.9697C35.6421 32.2702 35.8114 32.6257 35.9214 33.0361C36.0314 33.4424 36.0864 33.8867 36.0864 34.3691V34.896H30.9575V33.9375H34.9121V33.8486C34.8952 33.5439 34.8317 33.2477 34.7217 32.96C34.6159 32.6722 34.4466 32.4352 34.2139 32.249C33.9811 32.0628 33.6637 31.9697 33.2617 31.9697C32.9951 31.9697 32.7497 32.0269 32.5254 32.1411C32.3011 32.2511 32.1086 32.4162 31.9478 32.6362C31.7869 32.8563 31.6621 33.125 31.5732 33.4424C31.4844 33.7598 31.4399 34.1258 31.4399 34.5405V34.8071C31.4399 35.133 31.4844 35.4398 31.5732 35.7275C31.6663 36.0111 31.7996 36.2607 31.9731 36.4766C32.1509 36.6924 32.3646 36.8617 32.6143 36.9844C32.8682 37.1071 33.1559 37.1685 33.4775 37.1685C33.8923 37.1685 34.2435 37.0838 34.5312 36.9146C34.819 36.7453 35.0708 36.5189 35.2866 36.2354L35.9976 36.8003C35.8494 37.0246 35.6611 37.2383 35.4326 37.4414C35.2041 37.6445 34.9227 37.8096 34.5884 37.9365C34.2583 38.0635 33.8669 38.127 33.4141 38.127ZM41.7866 36.667V28.25H42.9673V38H41.8882L41.7866 36.667ZM37.1655 34.6421V34.5088C37.1655 33.984 37.229 33.508 37.356 33.0806C37.4871 32.6489 37.6712 32.2786 37.9082 31.9697C38.1494 31.6608 38.4351 31.4238 38.7651 31.2588C39.0994 31.0895 39.4718 31.0049 39.8823 31.0049C40.314 31.0049 40.6906 31.0811 41.0122 31.2334C41.3381 31.3815 41.6131 31.5994 41.8374 31.8872C42.0659 32.1707 42.2458 32.5135 42.377 32.9155C42.5081 33.3175 42.5991 33.7725 42.6499 34.2803V34.8643C42.6034 35.3678 42.5124 35.8206 42.377 36.2227C42.2458 36.6247 42.0659 36.9674 41.8374 37.251C41.6131 37.5345 41.3381 37.7524 41.0122 37.9048C40.6864 38.0529 40.3055 38.127 39.8696 38.127C39.4676 38.127 39.0994 38.0402 38.7651 37.8667C38.4351 37.6932 38.1494 37.4499 37.9082 37.1367C37.6712 36.8236 37.4871 36.4554 37.356 36.0322C37.229 35.6048 37.1655 35.1414 37.1655 34.6421ZM38.3462 34.5088V34.6421C38.3462 34.9849 38.38 35.3065 38.4478 35.6069C38.5197 35.9074 38.6297 36.1719 38.7778 36.4004C38.9259 36.6289 39.1143 36.8088 39.3428 36.9399C39.5713 37.0669 39.8442 37.1304 40.1616 37.1304C40.5509 37.1304 40.8704 37.0479 41.1201 36.8828C41.374 36.7178 41.5771 36.4998 41.7295 36.229C41.8818 35.9582 42.0003 35.6641 42.085 35.3467V33.8169C42.0342 33.5841 41.9601 33.3599 41.8628 33.144C41.7697 32.924 41.647 32.7293 41.4946 32.5601C41.3465 32.3866 41.1624 32.249 40.9424 32.1475C40.7266 32.0459 40.4705 31.9951 40.1743 31.9951C39.8527 31.9951 39.5755 32.0628 39.3428 32.1982C39.1143 32.3294 38.9259 32.5114 38.7778 32.7441C38.6297 32.9727 38.5197 33.2393 38.4478 33.5439C38.38 33.8444 38.3462 34.166 38.3462 34.5088Z" fill="#417DE8"/>
<path d="M13.75 10.7531V5.25C13.75 5.05109 13.829 4.86032 13.9697 4.71967C14.1103 4.57902 14.3011 4.5 14.5 4.5H29.5C29.6989 4.5 29.8897 4.57902 30.0303 4.71967C30.171 4.86032 30.25 5.05109 30.25 5.25V10.7531C30.25 18.6281 23.5656 21.2344 22.2344 21.675C22.0831 21.731 21.9169 21.731 21.7656 21.675C20.4344 21.2344 13.75 18.6281 13.75 10.7531Z" stroke="#417DE8" stroke-width="1.125" stroke-linecap="round" stroke-linejoin="round"/>
<path d="M26.125 9.75L20.6219 15L17.875 12.375" stroke="#417DE8" stroke-width="1.125" stroke-linecap="round" stroke-linejoin="round"/>
</svg>
