<svg width="81" height="33" viewBox="0 0 81 33" fill="none" xmlns="http://www.w3.org/2000/svg">
<path d="M32.6182 10.9219L34.9629 3.04688H37.2461L33.7803 13H32.2764L32.6182 10.9219ZM30.458 3.04688L32.7959 10.9219L33.1514 13H31.6338L28.1885 3.04688H30.458ZM41.1562 13.1367C40.582 13.1367 40.0671 13.0456 39.6113 12.8633C39.1556 12.6764 38.7682 12.4189 38.4492 12.0908C38.1348 11.7627 37.8932 11.3822 37.7246 10.9492C37.556 10.5117 37.4717 10.0469 37.4717 9.55469V9.28125C37.4717 8.7207 37.5514 8.20801 37.7109 7.74316C37.8704 7.27832 38.0983 6.875 38.3945 6.5332C38.6953 6.19141 39.0599 5.92936 39.4883 5.74707C39.9167 5.56022 40.3997 5.4668 40.9375 5.4668C41.4616 5.4668 41.9264 5.55339 42.332 5.72656C42.7376 5.89974 43.0771 6.14583 43.3506 6.46484C43.6286 6.78385 43.8382 7.16667 43.9795 7.61328C44.1208 8.05534 44.1914 8.54753 44.1914 9.08984V9.91016H38.3125V8.59766H42.2568V8.44727C42.2568 8.17383 42.2067 7.93001 42.1064 7.71582C42.0107 7.49707 41.8649 7.32389 41.6689 7.19629C41.473 7.06868 41.2223 7.00488 40.917 7.00488C40.6572 7.00488 40.4339 7.06185 40.2471 7.17578C40.0602 7.28971 39.9076 7.44922 39.7891 7.6543C39.6751 7.85938 39.5885 8.10091 39.5293 8.37891C39.4746 8.65234 39.4473 8.95312 39.4473 9.28125V9.55469C39.4473 9.85091 39.4883 10.1243 39.5703 10.375C39.6569 10.6257 39.7777 10.8421 39.9326 11.0244C40.0921 11.2067 40.2835 11.348 40.5068 11.4482C40.7347 11.5485 40.9922 11.5986 41.2793 11.5986C41.6348 11.5986 41.9652 11.5303 42.2705 11.3936C42.5804 11.2523 42.847 11.0404 43.0703 10.7578L44.0273 11.7969C43.8724 12.0202 43.6605 12.2344 43.3916 12.4395C43.1273 12.6445 42.8083 12.8132 42.4346 12.9453C42.0609 13.0729 41.6348 13.1367 41.1562 13.1367ZM47.2812 7.2168V13H45.3125V5.60352H47.165L47.2812 7.2168ZM49.5098 5.55566L49.4756 7.38086C49.3799 7.36719 49.2637 7.35579 49.127 7.34668C48.9948 7.33301 48.874 7.32617 48.7646 7.32617C48.4867 7.32617 48.2451 7.36263 48.04 7.43555C47.8395 7.50391 47.6709 7.60645 47.5342 7.74316C47.402 7.87988 47.3018 8.04622 47.2334 8.24219C47.1696 8.43815 47.1331 8.66146 47.124 8.91211L46.7275 8.78906C46.7275 8.31055 46.7754 7.87077 46.8711 7.46973C46.9668 7.06413 47.1058 6.71094 47.2881 6.41016C47.4749 6.10938 47.7028 5.87695 47.9717 5.71289C48.2406 5.54883 48.5482 5.4668 48.8945 5.4668C49.0039 5.4668 49.1156 5.47591 49.2295 5.49414C49.3434 5.50781 49.4368 5.52832 49.5098 5.55566ZM52.5176 5.60352V13H50.542V5.60352H52.5176ZM50.4189 3.67578C50.4189 3.38867 50.5192 3.15169 50.7197 2.96484C50.9202 2.77799 51.1891 2.68457 51.5264 2.68457C51.859 2.68457 52.1257 2.77799 52.3262 2.96484C52.5312 3.15169 52.6338 3.38867 52.6338 3.67578C52.6338 3.96289 52.5312 4.19987 52.3262 4.38672C52.1257 4.57357 51.859 4.66699 51.5264 4.66699C51.1891 4.66699 50.9202 4.57357 50.7197 4.38672C50.5192 4.19987 50.4189 3.96289 50.4189 3.67578ZM56.6055 13H54.6299V5.26855C54.6299 4.63965 54.7575 4.10872 55.0127 3.67578C55.2725 3.24284 55.6416 2.91471 56.1201 2.69141C56.6032 2.4681 57.1865 2.35645 57.8701 2.35645C58.2575 2.35645 58.6335 2.39518 58.998 2.47266C59.3626 2.54557 59.7386 2.64128 60.126 2.75977L59.8389 4.33887C59.5882 4.26139 59.3193 4.18848 59.0322 4.12012C58.7451 4.05176 58.3988 4.01758 57.9932 4.01758C57.5374 4.01758 57.1911 4.12467 56.9541 4.33887C56.7217 4.5485 56.6055 4.8584 56.6055 5.26855V13ZM58.0752 5.60352V6.99805H53.5293V5.60352H58.0752ZM61.042 5.60352V13H59.0664V5.60352H61.042ZM66.0938 13.1367C65.5195 13.1367 65.0046 13.0456 64.5488 12.8633C64.0931 12.6764 63.7057 12.4189 63.3867 12.0908C63.0723 11.7627 62.8307 11.3822 62.6621 10.9492C62.4935 10.5117 62.4092 10.0469 62.4092 9.55469V9.28125C62.4092 8.7207 62.4889 8.20801 62.6484 7.74316C62.8079 7.27832 63.0358 6.875 63.332 6.5332C63.6328 6.19141 63.9974 5.92936 64.4258 5.74707C64.8542 5.56022 65.3372 5.4668 65.875 5.4668C66.3991 5.4668 66.8639 5.55339 67.2695 5.72656C67.6751 5.89974 68.0146 6.14583 68.2881 6.46484C68.5661 6.78385 68.7757 7.16667 68.917 7.61328C69.0583 8.05534 69.1289 8.54753 69.1289 9.08984V9.91016H63.25V8.59766H67.1943V8.44727C67.1943 8.17383 67.1442 7.93001 67.0439 7.71582C66.9482 7.49707 66.8024 7.32389 66.6064 7.19629C66.4105 7.06868 66.1598 7.00488 65.8545 7.00488C65.5947 7.00488 65.3714 7.06185 65.1846 7.17578C64.9977 7.28971 64.8451 7.44922 64.7266 7.6543C64.6126 7.85938 64.526 8.10091 64.4668 8.37891C64.4121 8.65234 64.3848 8.95312 64.3848 9.28125V9.55469C64.3848 9.85091 64.4258 10.1243 64.5078 10.375C64.5944 10.6257 64.7152 10.8421 64.8701 11.0244C65.0296 11.2067 65.221 11.348 65.4443 11.4482C65.6722 11.5485 65.9297 11.5986 66.2168 11.5986C66.5723 11.5986 66.9027 11.5303 67.208 11.3936C67.5179 11.2523 67.7845 11.0404 68.0078 10.7578L68.9648 11.7969C68.8099 12.0202 68.598 12.2344 68.3291 12.4395C68.0648 12.6445 67.7458 12.8132 67.3721 12.9453C66.9984 13.0729 66.5723 13.1367 66.0938 13.1367ZM74.6182 11.3867V2.5H76.6006V13H74.8164L74.6182 11.3867ZM69.9424 9.39062V9.24707C69.9424 8.68197 70.0062 8.16927 70.1338 7.70898C70.2614 7.24414 70.4482 6.84538 70.6943 6.5127C70.9404 6.18001 71.2435 5.92253 71.6035 5.74023C71.9635 5.55794 72.3737 5.4668 72.834 5.4668C73.2669 5.4668 73.6452 5.55794 73.9688 5.74023C74.2969 5.92253 74.5749 6.18229 74.8027 6.51953C75.0352 6.85221 75.222 7.24642 75.3633 7.70215C75.5046 8.15332 75.6071 8.64779 75.6709 9.18555V9.5C75.6071 10.015 75.5046 10.4935 75.3633 10.9355C75.222 11.3776 75.0352 11.765 74.8027 12.0977C74.5749 12.4258 74.2969 12.681 73.9688 12.8633C73.6406 13.0456 73.2578 13.1367 72.8203 13.1367C72.36 13.1367 71.9499 13.0433 71.5898 12.8564C71.2344 12.6696 70.9336 12.4076 70.6875 12.0703C70.446 11.7331 70.2614 11.3366 70.1338 10.8809C70.0062 10.4251 69.9424 9.92839 69.9424 9.39062ZM71.9111 9.24707V9.39062C71.9111 9.69596 71.9339 9.98079 71.9795 10.2451C72.0296 10.5094 72.1094 10.7441 72.2188 10.9492C72.3327 11.1497 72.4785 11.307 72.6562 11.4209C72.8385 11.5303 73.0596 11.585 73.3193 11.585C73.6566 11.585 73.9346 11.5098 74.1533 11.3594C74.3721 11.2044 74.5384 10.9925 74.6523 10.7236C74.7708 10.4548 74.8392 10.1449 74.8574 9.79395V8.89844C74.8438 8.61133 74.8027 8.35384 74.7344 8.12598C74.6706 7.89355 74.5749 7.69531 74.4473 7.53125C74.3242 7.36719 74.1693 7.23958 73.9824 7.14844C73.8001 7.05729 73.5837 7.01172 73.333 7.01172C73.0778 7.01172 72.859 7.07096 72.6768 7.18945C72.4945 7.30339 72.3464 7.46061 72.2324 7.66113C72.123 7.86165 72.041 8.09863 71.9863 8.37207C71.9362 8.64095 71.9111 8.93262 71.9111 9.24707ZM31.2715 19.0469V29H29.2275V19.0469H31.2715ZM34.9971 23.1826V29H33.0283V21.6035H34.874L34.9971 23.1826ZM34.71 25.042H34.1768C34.1768 24.4951 34.2474 24.0029 34.3887 23.5654C34.5299 23.1234 34.7282 22.7474 34.9834 22.4375C35.2386 22.123 35.5417 21.8838 35.8926 21.7197C36.248 21.5511 36.6445 21.4668 37.082 21.4668C37.4284 21.4668 37.7451 21.5169 38.0322 21.6172C38.3193 21.7174 38.5654 21.877 38.7705 22.0957C38.9801 22.3145 39.1396 22.6038 39.249 22.9639C39.363 23.3239 39.4199 23.7637 39.4199 24.2832V29H37.4375V24.2764C37.4375 23.9482 37.3919 23.693 37.3008 23.5107C37.2096 23.3285 37.0752 23.2008 36.8975 23.1279C36.7243 23.0505 36.5101 23.0117 36.2549 23.0117C35.9906 23.0117 35.7604 23.0641 35.5645 23.1689C35.373 23.2738 35.2135 23.4196 35.0859 23.6064C34.9629 23.7887 34.8695 24.0029 34.8057 24.249C34.7419 24.4951 34.71 24.7594 34.71 25.042ZM43.4326 27.5645L45.0732 21.6035H47.1309L44.6357 29H43.3916L43.4326 27.5645ZM42.3047 21.6035L43.9521 27.5713L43.9863 29H42.7354L40.2402 21.6035H42.3047ZM47.5889 25.377V25.2334C47.5889 24.6911 47.6663 24.1921 47.8213 23.7363C47.9762 23.276 48.2018 22.8773 48.498 22.54C48.7943 22.2028 49.1589 21.9408 49.5918 21.7539C50.0247 21.5625 50.5215 21.4668 51.082 21.4668C51.6426 21.4668 52.1416 21.5625 52.5791 21.7539C53.0166 21.9408 53.3835 22.2028 53.6797 22.54C53.9805 22.8773 54.2083 23.276 54.3633 23.7363C54.5182 24.1921 54.5957 24.6911 54.5957 25.2334V25.377C54.5957 25.9147 54.5182 26.4137 54.3633 26.874C54.2083 27.3298 53.9805 27.7285 53.6797 28.0703C53.3835 28.4076 53.0189 28.6696 52.5859 28.8564C52.153 29.0433 51.6562 29.1367 51.0957 29.1367C50.5352 29.1367 50.0361 29.0433 49.5986 28.8564C49.1657 28.6696 48.7988 28.4076 48.498 28.0703C48.2018 27.7285 47.9762 27.3298 47.8213 26.874C47.6663 26.4137 47.5889 25.9147 47.5889 25.377ZM49.5576 25.2334V25.377C49.5576 25.6868 49.585 25.9762 49.6396 26.2451C49.6943 26.514 49.7809 26.751 49.8994 26.9561C50.0225 27.1566 50.182 27.3138 50.3779 27.4277C50.5739 27.5417 50.8132 27.5986 51.0957 27.5986C51.3691 27.5986 51.6038 27.5417 51.7998 27.4277C51.9958 27.3138 52.153 27.1566 52.2715 26.9561C52.39 26.751 52.4766 26.514 52.5312 26.2451C52.5905 25.9762 52.6201 25.6868 52.6201 25.377V25.2334C52.6201 24.9326 52.5905 24.6501 52.5312 24.3857C52.4766 24.1169 52.3877 23.8799 52.2646 23.6748C52.1462 23.4652 51.9889 23.3011 51.793 23.1826C51.597 23.0641 51.36 23.0049 51.082 23.0049C50.804 23.0049 50.5671 23.0641 50.3711 23.1826C50.1797 23.3011 50.0225 23.4652 49.8994 23.6748C49.7809 23.8799 49.6943 24.1169 49.6396 24.3857C49.585 24.6501 49.5576 24.9326 49.5576 25.2334ZM57.8838 21.6035V29H55.9082V21.6035H57.8838ZM55.7852 19.6758C55.7852 19.3887 55.8854 19.1517 56.0859 18.9648C56.2865 18.778 56.5553 18.6846 56.8926 18.6846C57.2253 18.6846 57.4919 18.778 57.6924 18.9648C57.8975 19.1517 58 19.3887 58 19.6758C58 19.9629 57.8975 20.1999 57.6924 20.3867C57.4919 20.5736 57.2253 20.667 56.8926 20.667C56.5553 20.667 56.2865 20.5736 56.0859 20.3867C55.8854 20.1999 55.7852 19.9629 55.7852 19.6758ZM62.5664 27.5986C62.8079 27.5986 63.0221 27.5531 63.209 27.4619C63.3958 27.3662 63.5417 27.234 63.6465 27.0654C63.7559 26.8923 63.8128 26.6895 63.8174 26.457H65.6699C65.6654 26.9766 65.5264 27.4391 65.2529 27.8447C64.9795 28.2458 64.6126 28.5625 64.1523 28.7949C63.6921 29.0228 63.1771 29.1367 62.6074 29.1367C62.0332 29.1367 61.5319 29.041 61.1035 28.8496C60.6797 28.6582 60.3265 28.3939 60.0439 28.0566C59.7614 27.7148 59.5495 27.3184 59.4082 26.8672C59.2669 26.4115 59.1963 25.9238 59.1963 25.4043V25.2061C59.1963 24.682 59.2669 24.1943 59.4082 23.7432C59.5495 23.2874 59.7614 22.891 60.0439 22.5537C60.3265 22.2119 60.6797 21.9453 61.1035 21.7539C61.5273 21.5625 62.0241 21.4668 62.5938 21.4668C63.1999 21.4668 63.7308 21.583 64.1865 21.8154C64.6468 22.0479 65.0068 22.3805 65.2666 22.8135C65.5309 23.2419 65.6654 23.75 65.6699 24.3379H63.8174C63.8128 24.0918 63.7604 23.8685 63.6602 23.668C63.5645 23.4674 63.4232 23.3079 63.2363 23.1895C63.054 23.0664 62.8285 23.0049 62.5596 23.0049C62.2725 23.0049 62.0378 23.0664 61.8555 23.1895C61.6732 23.3079 61.5319 23.472 61.4316 23.6816C61.3314 23.8867 61.2607 24.1214 61.2197 24.3857C61.1833 24.6455 61.165 24.9189 61.165 25.2061V25.4043C61.165 25.6914 61.1833 25.9671 61.2197 26.2314C61.2562 26.4958 61.3245 26.7305 61.4248 26.9355C61.5296 27.1406 61.6732 27.3024 61.8555 27.4209C62.0378 27.5394 62.2747 27.5986 62.5664 27.5986ZM70.2158 29.1367C69.6416 29.1367 69.1266 29.0456 68.6709 28.8633C68.2152 28.6764 67.8278 28.4189 67.5088 28.0908C67.1943 27.7627 66.9528 27.3822 66.7842 26.9492C66.6156 26.5117 66.5312 26.0469 66.5312 25.5547V25.2812C66.5312 24.7207 66.611 24.208 66.7705 23.7432C66.93 23.2783 67.1579 22.875 67.4541 22.5332C67.7549 22.1914 68.1195 21.9294 68.5479 21.7471C68.9762 21.5602 69.4593 21.4668 69.9971 21.4668C70.5212 21.4668 70.986 21.5534 71.3916 21.7266C71.7972 21.8997 72.1367 22.1458 72.4102 22.4648C72.6882 22.7839 72.8978 23.1667 73.0391 23.6133C73.1803 24.0553 73.251 24.5475 73.251 25.0898V25.9102H67.3721V24.5977H71.3164V24.4473C71.3164 24.1738 71.2663 23.93 71.166 23.7158C71.0703 23.4971 70.9245 23.3239 70.7285 23.1963C70.5326 23.0687 70.2819 23.0049 69.9766 23.0049C69.7168 23.0049 69.4935 23.0618 69.3066 23.1758C69.1198 23.2897 68.9671 23.4492 68.8486 23.6543C68.7347 23.8594 68.6481 24.1009 68.5889 24.3789C68.5342 24.6523 68.5068 24.9531 68.5068 25.2812V25.5547C68.5068 25.8509 68.5479 26.1243 68.6299 26.375C68.7165 26.6257 68.8372 26.8421 68.9922 27.0244C69.1517 27.2067 69.3431 27.348 69.5664 27.4482C69.7943 27.5485 70.0518 27.5986 70.3389 27.5986C70.6943 27.5986 71.0247 27.5303 71.3301 27.3936C71.64 27.2523 71.9066 27.0404 72.1299 26.7578L73.0869 27.7969C72.932 28.0202 72.7201 28.2344 72.4512 28.4395C72.1868 28.6445 71.8678 28.8132 71.4941 28.9453C71.1204 29.0729 70.6943 29.1367 70.2158 29.1367ZM78.3711 26.9561C78.3711 26.8148 78.3301 26.6872 78.248 26.5732C78.166 26.4593 78.0133 26.3545 77.79 26.2588C77.5713 26.1585 77.2546 26.0674 76.8398 25.9854C76.4661 25.9033 76.1175 25.8008 75.7939 25.6777C75.4749 25.5501 75.1969 25.3975 74.96 25.2197C74.7275 25.042 74.5452 24.8324 74.4131 24.5908C74.2809 24.3447 74.2148 24.0645 74.2148 23.75C74.2148 23.4401 74.2809 23.1484 74.4131 22.875C74.5498 22.6016 74.7435 22.36 74.9941 22.1504C75.2493 21.9362 75.5592 21.7699 75.9238 21.6514C76.293 21.5283 76.7077 21.4668 77.168 21.4668C77.8105 21.4668 78.362 21.5693 78.8223 21.7744C79.2871 21.9795 79.6426 22.262 79.8887 22.6221C80.1393 22.9775 80.2646 23.3831 80.2646 23.8389H78.2959C78.2959 23.6475 78.2549 23.4766 78.1729 23.3262C78.0954 23.1712 77.9723 23.0505 77.8037 22.9639C77.6396 22.8727 77.4255 22.8271 77.1611 22.8271C76.9424 22.8271 76.7533 22.8659 76.5938 22.9434C76.4342 23.0163 76.3112 23.1165 76.2246 23.2441C76.1426 23.3672 76.1016 23.5039 76.1016 23.6543C76.1016 23.7682 76.1243 23.8708 76.1699 23.9619C76.2201 24.0485 76.2998 24.1283 76.4092 24.2012C76.5186 24.2741 76.6598 24.3424 76.833 24.4062C77.0107 24.4655 77.2295 24.5202 77.4893 24.5703C78.0225 24.6797 78.4987 24.8232 78.918 25.001C79.3372 25.1742 79.6699 25.4111 79.916 25.7119C80.1621 26.0081 80.2852 26.3978 80.2852 26.8809C80.2852 27.209 80.2122 27.5098 80.0664 27.7832C79.9206 28.0566 79.7109 28.2959 79.4375 28.501C79.1641 28.7015 78.8359 28.8587 78.4531 28.9727C78.0749 29.082 77.6488 29.1367 77.1748 29.1367C76.4867 29.1367 75.9033 29.0137 75.4248 28.7676C74.9508 28.5215 74.5908 28.2093 74.3447 27.8311C74.1032 27.4482 73.9824 27.0563 73.9824 26.6553H75.8486C75.8577 26.9242 75.9261 27.1406 76.0537 27.3047C76.1859 27.4688 76.3522 27.5872 76.5527 27.6602C76.7578 27.7331 76.9788 27.7695 77.2158 27.7695C77.471 27.7695 77.6829 27.7354 77.8516 27.667C78.0202 27.5941 78.1478 27.4984 78.2344 27.3799C78.3255 27.2568 78.3711 27.1156 78.3711 26.9561Z" fill="#4956B2"/>
<path d="M28.1406 14.3672H80.8525V15.0508H28.1406V14.3672ZM28.2021 30.3672H80.7979V31.0508H28.2021V30.3672Z" fill="#4956B2"/>
<path d="M4.64062 18.9125V7.5C4.64062 7.23478 4.72952 6.98043 4.88775 6.79289C5.04599 6.60536 5.2606 6.5 5.48438 6.5H21.5156C21.7394 6.5 21.954 6.60536 22.1122 6.79289C22.2705 6.98043 22.3594 7.23478 22.3594 7.5V26.5C22.3594 26.7652 22.2705 27.0196 22.1122 27.2071C21.954 27.3946 21.7394 27.5 21.5156 27.5H14.3016" stroke="#4956B2" stroke-width="2" stroke-linecap="round" stroke-linejoin="round"/>
<path d="M13.5 20L6.75 28L3.375 24" stroke="#4956B2" stroke-width="2" stroke-linecap="round" stroke-linejoin="round"/>
</svg>
