<svg width="32" height="32" viewBox="0 0 32 32" fill="none" xmlns="http://www.w3.org/2000/svg">
<path d="M27 6.25H5.00003C4.5359 6.25 4.09078 6.43437 3.76259 6.76256C3.4344 7.09075 3.25003 7.53587 3.25003 8V28C3.24822 28.3336 3.34265 28.6607 3.52201 28.9421C3.70136 29.2234 3.95804 29.4471 4.26128 29.5863C4.49278 29.6936 4.74483 29.7495 5.00003 29.75C5.41229 29.7502 5.81115 29.6035 6.12503 29.3363L6.13628 29.3263L10.1538 25.805C10.1988 25.7689 10.2548 25.7495 10.3125 25.75H27C27.4642 25.75 27.9093 25.5656 28.2375 25.2374C28.5656 24.9092 28.75 24.4641 28.75 24V8C28.75 7.53587 28.5656 7.09075 28.2375 6.76256C27.9093 6.43437 27.4642 6.25 27 6.25ZM27.25 24C27.25 24.0663 27.2237 24.1299 27.1768 24.1768C27.1299 24.2237 27.0663 24.25 27 24.25H10.3125C9.90083 24.2505 9.50248 24.3961 9.18753 24.6612L9.17628 24.6712L5.15628 28.1925C5.11968 28.2218 5.07559 28.2402 5.02903 28.2457C4.98247 28.2511 4.93532 28.2433 4.89296 28.2233C4.8506 28.2032 4.81473 28.1716 4.78946 28.1321C4.76419 28.0927 4.75052 28.0469 4.75003 28V8C4.75003 7.9337 4.77636 7.87011 4.82325 7.82322C4.87013 7.77634 4.93372 7.75 5.00003 7.75H27C27.0663 7.75 27.1299 7.77634 27.1768 7.82322C27.2237 7.87011 27.25 7.9337 27.25 8V24ZM17.25 16C17.25 16.2472 17.1767 16.4889 17.0394 16.6945C16.902 16.9 16.7068 17.0602 16.4784 17.1549C16.25 17.2495 15.9986 17.2742 15.7562 17.226C15.5137 17.1777 15.291 17.0587 15.1161 16.8839C14.9413 16.7091 14.8223 16.4863 14.774 16.2439C14.7258 16.0014 14.7506 15.7501 14.8452 15.5216C14.9398 15.2932 15.1 15.098 15.3056 14.9607C15.5111 14.8233 15.7528 14.75 16 14.75C16.3315 14.75 16.6495 14.8817 16.8839 15.1161C17.1183 15.3505 17.25 15.6685 17.25 16ZM11.75 16C11.75 16.2472 11.6767 16.4889 11.5394 16.6945C11.402 16.9 11.2068 17.0602 10.9784 17.1549C10.75 17.2495 10.4986 17.2742 10.2562 17.226C10.0137 17.1777 9.79096 17.0587 9.61614 16.8839C9.44133 16.7091 9.32228 16.4863 9.27404 16.2439C9.22581 16.0014 9.25057 15.7501 9.34518 15.5216C9.43979 15.2932 9.6 15.098 9.80556 14.9607C10.0111 14.8233 10.2528 14.75 10.5 14.75C10.8315 14.75 11.1495 14.8817 11.3839 15.1161C11.6183 15.3505 11.75 15.6685 11.75 16ZM22.75 16C22.75 16.2472 22.6767 16.4889 22.5394 16.6945C22.402 16.9 22.2068 17.0602 21.9784 17.1549C21.75 17.2495 21.4986 17.2742 21.2562 17.226C21.0137 17.1777 20.791 17.0587 20.6161 16.8839C20.4413 16.7091 20.3223 16.4863 20.274 16.2439C20.2258 16.0014 20.2506 15.7501 20.3452 15.5216C20.4398 15.2932 20.6 15.098 20.8056 14.9607C21.0111 14.8233 21.2528 14.75 21.5 14.75C21.8315 14.75 22.1495 14.8817 22.3839 15.1161C22.6183 15.3505 22.75 15.6685 22.75 16Z" fill="#4956B2"/>
</svg>
