<svg width="32" height="32" viewBox="0 0 32 32" fill="none" xmlns="http://www.w3.org/2000/svg">
<path d="M25.7237 8.4275C23.2375 7.185 19.7838 6.5 16 6.5C12.2162 6.5 8.7625 7.185 6.27625 8.4275C3.875 9.625 2.5 11.2938 2.5 13V19C2.5 20.7062 3.875 22.375 6.27625 23.5725C8.7625 24.815 12.2162 25.5 16 25.5C19.7838 25.5 23.2375 24.815 25.7237 23.5725C28.125 22.375 29.5 20.7062 29.5 19V13C29.5 11.2938 28.125 9.625 25.7237 8.4275ZM16 7.5C23.7213 7.5 28.5 10.355 28.5 13C28.5 15.645 23.7213 18.5 16 18.5C8.27875 18.5 3.5 15.645 3.5 13C3.5 10.355 8.27875 7.5 16 7.5ZM15.5 19.5V24.5C12.75 24.4563 10.3825 24.0437 8.5 23.4112V18.4562C10.5287 19.0937 12.93 19.4525 15.5 19.5ZM16.5 19.5C19.07 19.4587 21.4713 19.1 23.5 18.4625V23.4112C21.6175 24.0437 19.2562 24.4563 16.5 24.5V19.5ZM3.5 19V15.49C4.14375 16.2637 5.08375 16.9763 6.27625 17.5725C6.66125 17.765 7.07125 17.9413 7.5 18.1075V23.03C4.93625 21.9588 3.5 20.4488 3.5 19ZM28.5 19C28.5 20.4488 27.0638 21.9588 24.5 23.03V18.1075C24.9288 17.9413 25.3387 17.765 25.7237 17.5725C26.9162 16.9763 27.8562 16.2637 28.5 15.49V19Z" fill="#4956B2"/>
</svg>
