<svg width="32" height="32" viewBox="0 0 32 32" fill="none" xmlns="http://www.w3.org/2000/svg">
<path d="M26 10.25H21.75V7C21.75 5.47501 21.1442 4.01247 20.0659 2.93414C18.9875 1.8558 17.525 1.25 16 1.25C14.475 1.25 13.0125 1.8558 11.9341 2.93414C10.8558 4.01247 10.25 5.47501 10.25 7V10.25H6C5.53587 10.25 5.09075 10.4344 4.76256 10.7626C4.43437 11.0908 4.25 11.5359 4.25 12V26C4.25 26.4641 4.43437 26.9092 4.76256 27.2374C5.09075 27.5656 5.53587 27.75 6 27.75H26C26.4641 27.75 26.9092 27.5656 27.2374 27.2374C27.5656 26.9092 27.75 26.4641 27.75 26V12C27.75 11.5359 27.5656 11.0908 27.2374 10.7626C26.9092 10.4344 26.4641 10.25 26 10.25ZM11.75 7C11.75 5.87283 12.1978 4.79183 12.9948 3.9948C13.7918 3.19777 14.8728 2.75 16 2.75C17.1272 2.75 18.2082 3.19777 19.0052 3.9948C19.8022 4.79183 20.25 5.87283 20.25 7V10.25H11.75V7ZM26.25 26C26.25 26.0663 26.2237 26.1299 26.1768 26.1768C26.1299 26.2237 26.0663 26.25 26 26.25H6C5.9337 26.25 5.87011 26.2237 5.82322 26.1768C5.77634 26.1299 5.75 26.0663 5.75 26V12C5.75 11.9337 5.77634 11.8701 5.82322 11.8232C5.87011 11.7763 5.9337 11.75 6 11.75H26C26.0663 11.75 26.1299 11.7763 26.1768 11.8232C26.2237 11.8701 26.25 11.9337 26.25 12V26ZM16 14.25C15.2042 14.2511 14.4364 14.5441 13.8422 15.0735C13.2481 15.6029 12.8688 16.3319 12.7763 17.1224C12.6839 17.9128 12.8846 18.7097 13.3406 19.362C13.7965 20.0142 14.4759 20.4765 15.25 20.6612V23C15.25 23.1989 15.329 23.3897 15.4697 23.5303C15.6103 23.671 15.8011 23.75 16 23.75C16.1989 23.75 16.3897 23.671 16.5303 23.5303C16.671 23.3897 16.75 23.1989 16.75 23V20.6612C17.5241 20.4765 18.2035 20.0142 18.6594 19.362C19.1154 18.7097 19.3161 17.9128 19.2237 17.1224C19.1312 16.3319 18.7519 15.6029 18.1578 15.0735C17.5636 14.5441 16.7958 14.2511 16 14.25ZM16 19.25C15.6539 19.25 15.3155 19.1474 15.0278 18.9551C14.74 18.7628 14.5157 18.4895 14.3832 18.1697C14.2508 17.8499 14.2161 17.4981 14.2836 17.1586C14.3511 16.8191 14.5178 16.5073 14.7626 16.2626C15.0073 16.0178 15.3191 15.8511 15.6586 15.7836C15.9981 15.7161 16.3499 15.7508 16.6697 15.8832C16.9895 16.0157 17.2628 16.24 17.4551 16.5278C17.6474 16.8155 17.75 17.1539 17.75 17.5C17.75 17.9641 17.5656 18.4092 17.2374 18.7374C16.9092 19.0656 16.4641 19.25 16 19.25Z" fill="#4956B2"/>
</svg>
