<svg width="31" height="30" viewBox="0 0 31 30" fill="none" xmlns="http://www.w3.org/2000/svg">
<path d="M30.1278 15.2832C30.1284 17.8085 29.4751 20.2908 28.2317 22.4886C26.9882 24.6865 25.1969 26.525 23.0322 27.8251C20.8674 29.1253 18.4029 29.8429 15.8785 29.908C13.3541 29.9731 10.8559 29.3835 8.62699 28.1967L3.83825 29.7929C3.44177 29.9251 3.0163 29.9443 2.60953 29.8483C2.20276 29.7523 1.83076 29.5449 1.53523 29.2494C1.2397 28.9539 1.03231 28.5819 0.936315 28.1751C0.840319 27.7683 0.859508 27.3429 0.99173 26.9464L2.58798 22.1577C1.54465 20.1961 0.96191 18.0226 0.883997 15.8022C0.806084 13.5817 1.23504 11.3728 2.13831 9.34286C3.04158 7.31298 4.39542 5.51554 6.09707 4.087C7.79872 2.65846 9.80345 1.63636 11.9591 1.09827C14.1147 0.560186 16.3646 0.520263 18.538 0.981532C20.7114 1.4428 22.7511 2.39314 24.5024 3.76041C26.2536 5.12768 27.6704 6.87595 28.6451 8.87251C29.6198 10.8691 30.1269 13.0615 30.1278 15.2832Z" fill="#5077DD"/>
<path d="M20.9742 14.1853L12.937 22.7967C12.8518 22.8876 12.7394 22.9483 12.6167 22.9697C12.494 22.9911 12.3676 22.972 12.2567 22.9153C12.1458 22.8586 12.0563 22.7673 12.0018 22.6553C11.9473 22.5433 11.9308 22.4166 11.9546 22.2943L13.0066 17.0321L8.871 15.4792C8.78219 15.446 8.70298 15.3913 8.64047 15.32C8.57795 15.2487 8.53407 15.163 8.51275 15.0706C8.49143 14.9782 8.49332 14.8819 8.51827 14.7904C8.54322 14.699 8.59044 14.6151 8.65572 14.5463L16.693 5.93497C16.7781 5.84407 16.8906 5.78335 17.0133 5.76195C17.136 5.74056 17.2623 5.75965 17.3732 5.81636C17.4841 5.87307 17.5736 5.96432 17.6281 6.07632C17.6826 6.18833 17.6992 6.31503 17.6754 6.4373L16.6205 11.7053L20.7561 13.256C20.8442 13.2895 20.9228 13.3441 20.9848 13.4151C21.0469 13.4862 21.0904 13.5714 21.1117 13.6632C21.133 13.7551 21.1313 13.8508 21.1068 13.9418C21.0824 14.0329 21.0358 14.1165 20.9714 14.1853H20.9742Z" fill="white"/>
</svg>
