<svg width="31" height="30" viewBox="0 0 31 30" fill="none" xmlns="http://www.w3.org/2000/svg">
<path d="M30.1278 15.283C30.1284 17.8082 29.4751 20.2906 28.2317 22.4884C26.9882 24.6862 25.1969 26.5247 23.0322 27.8249C20.8674 29.1251 18.4029 29.8426 15.8785 29.9077C13.3541 29.9728 10.8559 29.3833 8.62699 28.1964L3.83825 29.7927C3.44177 29.9249 3.0163 29.9441 2.60953 29.8481C2.20276 29.7521 1.83076 29.5447 1.53523 29.2492C1.2397 28.9536 1.03231 28.5816 0.936315 28.1749C0.840319 27.7681 0.859508 27.3426 0.99173 26.9461L2.58798 22.1574C1.54465 20.1958 0.96191 18.0223 0.883997 15.8019C0.806084 13.5815 1.23504 11.3725 2.13831 9.34262C3.04158 7.31273 4.39542 5.5153 6.09707 4.08676C7.79872 2.65822 9.80345 1.63611 11.9591 1.09803C14.1147 0.559942 16.3646 0.520019 18.538 0.981288C20.7114 1.44256 22.7511 2.3929 24.5024 3.76017C26.2536 5.12744 27.6704 6.87571 28.6451 8.87227C29.6198 10.8688 30.1269 13.0612 30.1278 15.283Z" fill="black" fill-opacity="0.3"/>
<path d="M20.9742 14.1848L12.937 22.7962C12.8518 22.8871 12.7394 22.9478 12.6167 22.9692C12.494 22.9906 12.3676 22.9715 12.2567 22.9148C12.1458 22.8581 12.0563 22.7668 12.0018 22.6548C11.9473 22.5428 11.9308 22.4161 11.9546 22.2938L13.0066 17.0316L8.871 15.4787C8.78219 15.4455 8.70298 15.3908 8.64047 15.3195C8.57795 15.2482 8.53407 15.1625 8.51275 15.0701C8.49143 14.9777 8.49332 14.8814 8.51827 14.79C8.54322 14.6985 8.59044 14.6146 8.65572 14.5458L16.693 5.93448C16.7781 5.84358 16.8906 5.78286 17.0133 5.76146C17.136 5.74007 17.2623 5.75916 17.3732 5.81587C17.4841 5.87258 17.5736 5.96383 17.6281 6.07584C17.6826 6.18784 17.6992 6.31454 17.6754 6.43681L16.6205 11.7048L20.7561 13.2555C20.8442 13.289 20.9228 13.3436 20.9848 13.4147C21.0469 13.4857 21.0904 13.5709 21.1117 13.6627C21.133 13.7546 21.1313 13.8503 21.1068 13.9414C21.0824 14.0324 21.0358 14.116 20.9714 14.1848H20.9742Z" fill="white"/>
</svg>
