<svg width="38" height="30" viewBox="0 0 38 30" fill="none" xmlns="http://www.w3.org/2000/svg">
<path d="M34.4297 8.53125C34.3688 8.37891 34.3048 8.22656 34.2393 8.07422C33.2563 5.80739 31.6656 3.85658 29.643 2.4375H32.9062C33.2295 2.4375 33.5395 2.3091 33.768 2.08054C33.9966 1.85198 34.125 1.54198 34.125 1.21875C34.125 0.895517 33.9966 0.585523 33.768 0.356963C33.5395 0.128403 33.2295 0 32.9062 0H17.0625C13.6928 0.00427869 10.4479 1.27566 7.97227 3.56168C5.4966 5.8477 3.97117 8.98116 3.69891 12.3398C2.64615 12.6015 1.71076 13.2069 1.04079 14.0601C0.37083 14.9133 0.00457263 15.9655 0 17.0503C0 17.3735 0.128404 17.6835 0.356964 17.9121C0.585524 18.1407 0.895517 18.2691 1.21875 18.2691C1.54198 18.2691 1.85198 18.1407 2.08054 17.9121C2.3091 17.6835 2.4375 17.3735 2.4375 17.0503C2.43778 16.6059 2.55957 16.17 2.78968 15.7898C3.0198 15.4096 3.34948 15.0995 3.74309 14.8931C4.04645 17.6275 5.18661 20.2015 7.00781 22.2635L8.92125 27.6199C9.09041 28.0937 9.40202 28.5035 9.81334 28.7932C10.2247 29.0829 10.7155 29.2382 11.2186 29.2378H13.1564C13.6592 29.2379 14.1498 29.0824 14.5608 28.7928C14.9718 28.5031 15.2832 28.0935 15.4522 27.6199L15.7447 26.8003H24.474L24.7665 27.6199C24.9356 28.0935 25.247 28.5031 25.658 28.7928C26.069 29.0824 26.5595 29.2379 27.0623 29.2378H29.0002C29.503 29.2379 29.9935 29.0824 30.4045 28.7928C30.8155 28.5031 31.1269 28.0935 31.296 27.6199L33.7655 20.7066H34.125C35.0947 20.7066 36.0247 20.3214 36.7104 19.6357C37.396 18.95 37.7812 18.02 37.7812 17.0503V12.1753C37.7814 11.2583 37.4369 10.3747 36.8161 9.69968C36.1953 9.02471 35.3435 8.60767 34.4297 8.53125ZM23.1562 6.08156H17.0625C16.7393 6.08156 16.4293 5.95316 16.2007 5.7246C15.9722 5.49604 15.8438 5.18604 15.8438 4.86281C15.8438 4.53958 15.9722 4.22959 16.2007 4.00103C16.4293 3.77247 16.7393 3.64406 17.0625 3.64406H23.1562C23.4795 3.64406 23.7895 3.77247 24.018 4.00103C24.2466 4.22959 24.375 4.53958 24.375 4.86281C24.375 5.18604 24.2466 5.49604 24.018 5.7246C23.7895 5.95316 23.4795 6.08156 23.1562 6.08156ZM27.4219 14.6128C27.0603 14.6128 26.7069 14.5056 26.4062 14.3047C26.1056 14.1038 25.8713 13.8183 25.7329 13.4843C25.5945 13.1502 25.5583 12.7827 25.6289 12.428C25.6994 12.0734 25.8735 11.7477 26.1292 11.492C26.3849 11.2363 26.7106 11.0622 27.0652 10.9917C27.4198 10.9212 27.7874 10.9574 28.1215 11.0957C28.4555 11.2341 28.741 11.4684 28.9419 11.769C29.1428 12.0697 29.25 12.4231 29.25 12.7847C29.25 13.2695 29.0574 13.7345 28.7146 14.0774C28.3717 14.4202 27.9067 14.6128 27.4219 14.6128Z" fill="#5077DD"/>
</svg>
