<svg width="27" height="28" viewBox="0 0 27 28" fill="none" xmlns="http://www.w3.org/2000/svg">
<path d="M26.1806 10.7769L14.9685 0.587924C14.5551 0.209738 14.0151 0 13.4548 0C12.8946 0 12.3546 0.209738 11.9412 0.587924L0.729087 10.7769C0.499525 10.987 0.31618 11.2424 0.190712 11.5272C0.0652434 11.8119 0.000397908 12.1196 0.000299037 12.4307V25.3387C-0.00881709 25.904 0.190774 26.4529 0.560905 26.8803C0.770975 27.1192 1.02976 27.3104 1.31985 27.4409C1.60994 27.5714 1.92462 27.6384 2.24272 27.6372H8.97C9.26736 27.6372 9.55254 27.519 9.76281 27.3088C9.97308 27.0985 10.0912 26.8133 10.0912 26.516V19.7887C10.0912 19.4913 10.2093 19.2061 10.4196 18.9959C10.6299 18.7856 10.9151 18.6675 11.2124 18.6675H15.6973C15.9946 18.6675 16.2798 18.7856 16.4901 18.9959C16.7004 19.2061 16.8185 19.4913 16.8185 19.7887V26.516C16.8185 26.8133 16.9366 27.0985 17.1469 27.3088C17.3571 27.519 17.6423 27.6372 17.9397 27.6372H24.667C25.0389 27.6404 25.4055 27.5488 25.7321 27.3709C26.0875 27.1773 26.3843 26.8918 26.5915 26.5441C26.7986 26.1964 26.9084 25.7994 26.9094 25.3947V12.4307C26.9093 12.1196 26.8444 11.8119 26.719 11.5272C26.5935 11.2424 26.4102 10.987 26.1806 10.7769V10.7769Z" fill="#5077DD"/>
</svg>
