<svg width="24" height="29" viewBox="0 0 24 29" fill="none" xmlns="http://www.w3.org/2000/svg">
<path fill-rule="evenodd" clip-rule="evenodd" d="M1.42853 1.81268C0.47461 2.76659 0.474609 4.30189 0.474609 7.37249V22.0284C0.474609 25.0989 0.47461 26.6342 1.42853 27.5881C2.38243 28.5421 3.91773 28.5421 6.98833 28.5421H16.7589C19.8295 28.5421 21.3648 28.5421 22.3187 27.5881C23.2726 26.6342 23.2726 25.0989 23.2726 22.0284V7.37249C23.2726 4.30189 23.2726 2.76659 22.3187 1.81268C21.3648 0.858765 19.8295 0.858765 16.7589 0.858765H6.98833C3.91773 0.858765 2.38243 0.858765 1.42853 1.81268ZM6.98833 7.37249C6.08898 7.37249 5.3599 8.10157 5.3599 9.00092C5.3599 9.90027 6.08898 10.6293 6.98833 10.6293H16.7589C17.6583 10.6293 18.3873 9.90027 18.3873 9.00092C18.3873 8.10157 17.6583 7.37249 16.7589 7.37249H6.98833ZM6.98833 13.8862C6.08898 13.8862 5.3599 14.6153 5.3599 15.5146C5.3599 16.414 6.08898 17.1431 6.98833 17.1431H16.7589C17.6583 17.1431 18.3873 16.414 18.3873 15.5146C18.3873 14.6153 17.6583 13.8862 16.7589 13.8862H6.98833ZM6.98833 20.3999C6.08898 20.3999 5.3599 21.129 5.3599 22.0284C5.3599 22.9277 6.08898 23.6568 6.98833 23.6568H13.5021C14.4014 23.6568 15.1305 22.9277 15.1305 22.0284C15.1305 21.129 14.4014 20.3999 13.5021 20.3999H6.98833Z" fill="#ACACAC"/>
</svg>
