<svg width="23" height="28" viewBox="0 0 23 28" fill="none" xmlns="http://www.w3.org/2000/svg">
<path fill-rule="evenodd" clip-rule="evenodd" d="M0.953918 0.953918C2.91186e-07 1.90782 0 3.44312 0 6.51372V21.1696C0 24.2402 2.91186e-07 25.7754 0.953918 26.7294C1.90782 27.6833 3.44312 27.6833 6.51372 27.6833H16.2843C19.3549 27.6833 20.8902 27.6833 21.8441 26.7294C22.798 25.7754 22.798 24.2402 22.798 21.1696V6.51372C22.798 3.44312 22.798 1.90782 21.8441 0.953918C20.8902 2.91186e-07 19.3549 0 16.2843 0H6.51372C3.44312 0 1.90782 2.91186e-07 0.953918 0.953918ZM6.51372 6.51372C5.61437 6.51372 4.88529 7.2428 4.88529 8.14215C4.88529 9.0415 5.61437 9.77058 6.51372 9.77058H16.2843C17.1837 9.77058 17.9127 9.0415 17.9127 8.14215C17.9127 7.2428 17.1837 6.51372 16.2843 6.51372H6.51372ZM6.51372 13.0274C5.61437 13.0274 4.88529 13.7565 4.88529 14.6559C4.88529 15.5553 5.61437 16.2843 6.51372 16.2843H16.2843C17.1837 16.2843 17.9127 15.5553 17.9127 14.6559C17.9127 13.7565 17.1837 13.0274 16.2843 13.0274H6.51372ZM6.51372 19.5412C5.61437 19.5412 4.88529 20.2702 4.88529 21.1696C4.88529 22.069 5.61437 22.798 6.51372 22.798H13.0274C13.9268 22.798 14.6559 22.069 14.6559 21.1696C14.6559 20.2702 13.9268 19.5412 13.0274 19.5412H6.51372Z" fill="#5077DD"/>
</svg>
