<svg width="30" height="30" viewBox="0 0 30 30" fill="none" xmlns="http://www.w3.org/2000/svg">
<path d="M27.3295 0H1.82197C0.814876 0 0 0.814876 0 1.82197V5.46591C0 6.473 0.814876 7.28788 1.82197 7.28788H27.3295C28.3366 7.28788 29.1515 6.473 29.1515 5.46591V1.82197C29.1515 0.814876 28.3366 0 27.3295 0Z" fill="#ACACAC"/>
<path d="M1.82178 10.9318V27.3295C1.82178 28.3366 2.63665 29.1515 3.64375 29.1515H25.5074C26.5145 29.1515 27.3294 28.3366 27.3294 27.3295V10.9318H1.82178ZM18.2195 18.2196H10.9316C9.92453 18.2196 9.10966 17.4048 9.10966 16.3977C9.10966 15.3906 9.92453 14.5757 10.9316 14.5757H18.2195C19.2266 14.5757 20.0415 15.3906 20.0415 16.3977C20.0415 17.4048 19.2266 18.2196 18.2195 18.2196Z" fill="#ACACAC"/>
</svg>
